<svg width="172" height="85" viewBox="0 0 172 85" fill="none" xmlns="http://www.w3.org/2000/svg">
<path d="M29.2524 61.2559C29.4065 61.3404 29.5466 61.4506 29.6725 61.5865C29.7939 61.7065 29.9124 61.8316 30.028 61.9619C30.4897 62.5091 30.8822 63.0852 31.2054 63.6901C31.5183 64.2893 31.7362 64.9034 31.8592 65.5321C31.9821 66.1609 31.9971 66.8039 31.9039 67.4612C31.8108 68.1185 31.5839 68.7759 31.2233 69.4335C30.7443 70.3069 30.148 70.9556 29.4344 71.3795C28.7208 71.8035 27.95 72.0757 27.122 72.1964C26.2838 72.3114 25.421 72.3127 24.5337 72.2004C23.652 72.0777 22.8013 71.8986 21.9816 71.6629C20.788 71.3292 19.6255 70.9389 18.4939 70.4921C17.352 70.0396 16.2468 69.5204 15.1781 68.9344C14.5514 68.5907 13.9181 68.21 13.2784 67.7924C12.6443 67.3645 12.0431 66.9011 11.4746 66.4022C10.8959 65.8978 10.371 65.356 9.90002 64.7769C9.41874 64.1923 9.02265 63.5741 8.71175 62.9224C8.39056 62.2652 8.16766 61.5749 8.04303 60.8517C7.92404 60.1182 7.93746 59.3503 8.0833 58.5482C8.12606 58.2509 8.20527 57.9602 8.32095 57.6762C8.42635 57.3865 8.55231 57.108 8.69881 56.8409C8.99182 56.3066 9.35808 55.8459 9.79759 55.4587C10.2371 55.0716 10.7147 54.7855 11.2305 54.6006C11.7519 54.4053 12.2949 54.3289 12.8597 54.3714C13.4302 54.4035 13.9928 54.5717 14.5477 54.876C14.7326 54.9774 14.8488 55.0946 14.8962 55.2275C14.9436 55.3604 14.911 55.5296 14.7983 55.7351C14.5898 56.1153 14.3647 56.3795 14.1231 56.5277C13.8871 56.6655 13.64 56.7506 13.3818 56.7827C13.1236 56.8149 12.8612 56.818 12.5947 56.7922C12.3339 56.756 12.0772 56.7489 11.8246 56.7708C11.572 56.7927 11.3278 56.8725 11.0918 57.0104C10.8558 57.1483 10.6392 57.3971 10.4419 57.7567C10.2447 58.1163 10.1307 58.4948 10.0999 58.8923C10.0644 59.2738 10.0865 59.6601 10.166 60.0512C10.2512 60.432 10.3785 60.8092 10.5478 61.1828C10.7126 61.5404 10.8937 61.8803 11.0913 62.2025C11.6561 63.0736 12.3478 63.8472 13.1665 64.5234C13.9749 65.1939 14.8364 65.7799 15.7509 66.2814C16.0591 66.4505 16.4655 66.6599 16.97 66.9099C17.4698 67.1439 18.0267 67.3958 18.6405 67.6656C19.26 67.9251 19.9267 68.1838 20.6407 68.4417C21.3444 68.6939 22.0491 68.92 22.7547 69.1198C23.466 69.3094 24.1657 69.4592 24.8538 69.5693C25.5476 69.669 26.1835 69.7037 26.7615 69.6732C27.3452 69.6324 27.8585 69.5129 28.3013 69.3147C28.7498 69.1062 29.0923 68.7862 29.329 68.3547C29.5713 67.9128 29.6724 67.4604 29.6323 66.9973C29.5819 66.5287 29.4468 66.0804 29.2271 65.6525C29.0027 65.2086 28.7272 64.797 28.4007 64.4174C28.0696 64.022 27.7496 63.6795 27.4407 63.3898C27.3548 63.3026 27.2764 63.2262 27.2055 63.1606C27.1402 63.0847 27.088 63.0093 27.0489 62.9343C27.0154 62.8492 27.003 62.7622 27.0116 62.6733C27.0202 62.5845 27.0612 62.4733 27.1344 62.3397C27.2133 62.1959 27.3371 62.0432 27.5058 61.8818C27.6699 61.7045 27.8512 61.5566 28.0497 61.4383C28.2539 61.3097 28.4617 61.2232 28.6732 61.1788C28.8847 61.1344 29.0777 61.1601 29.2524 61.2559Z" fill="white"/>
<path d="M43.4131 49.1105C43.6087 49.2959 43.695 49.5796 43.672 49.9615C43.6571 50.3349 43.5689 50.76 43.4076 51.2368C43.2458 51.6971 43.0392 52.1875 42.7878 52.7081C42.536 53.2122 42.2712 53.6959 41.9934 54.1592C41.7237 54.614 41.4609 55.0189 41.2051 55.3739C40.9578 55.7369 40.7616 55.995 40.6165 56.1481C40.3424 56.4372 40.0544 56.6729 39.7525 56.855C39.4587 57.0286 39.1592 57.1402 38.8538 57.1898C38.5399 57.2313 38.224 57.1983 37.9061 57.0907C37.5963 56.9746 37.2841 56.7674 36.9695 56.4691C34.6988 54.3164 32.4447 52.1632 30.2072 50.0096C27.9697 47.856 25.7071 45.6948 23.4195 43.5259C23.0623 43.1873 22.7013 42.8612 22.3365 42.5477C21.9717 42.2341 21.6107 41.908 21.2535 41.5694C21.1685 41.4887 21.0747 41.3918 20.9722 41.2785C20.8612 41.1571 20.7751 41.035 20.7138 40.9123C20.644 40.7816 20.6073 40.6499 20.6038 40.5174C20.6002 40.3848 20.6549 40.259 20.7678 40.14C20.8807 40.0209 21.0146 39.9137 21.1695 39.8184C21.3326 39.7146 21.5005 39.6397 21.6733 39.5936C21.8543 39.539 22.036 39.5176 22.2187 39.5293C22.401 39.5245 22.576 39.5613 22.7439 39.6397C22.9373 39.7423 23.1192 39.8825 23.2898 40.0603C23.4599 40.2216 23.6342 40.3868 23.8128 40.5562C26.1152 42.6583 28.3886 44.7571 30.6328 46.8525C32.8852 48.9394 35.1424 51.0551 37.4045 53.1998C37.6597 53.4417 37.9148 53.6836 38.1699 53.9254C38.4331 54.1588 38.7044 54.3837 38.9837 54.6001C39.1929 54.3624 39.4207 54.0455 39.6671 53.6493C39.9135 53.2531 40.1429 52.8408 40.3553 52.4124C40.5672 51.9674 40.7463 51.5316 40.8924 51.1049C41.0385 50.6783 41.1157 50.3074 41.1238 49.9921C41.1199 49.843 41.1199 49.6897 41.124 49.5321C41.1196 49.3664 41.1778 49.2198 41.2988 49.0922C41.4036 48.9817 41.5507 48.9032 41.7401 48.8567C41.9376 48.8017 42.1442 48.7796 42.3601 48.7904C42.5674 48.7932 42.7671 48.821 42.9591 48.8739C43.1512 48.9268 43.3025 49.0057 43.4131 49.1105Z" fill="white"/>
<path d="M57.0805 39.5642C57.2657 39.8492 57.3677 40.1673 57.3863 40.5185C57.3986 40.86 57.3153 41.1727 57.1365 41.4566C57.0834 41.547 56.9173 41.7108 56.6383 41.9481C56.3529 42.1756 56.0428 42.419 55.7083 42.6784C55.3737 42.9377 55.0539 43.1875 54.7488 43.4278C54.4535 43.6616 54.2452 43.8249 54.1239 43.9178C54.203 44.104 54.201 44.273 54.118 44.4248C54.0285 44.5667 53.9101 44.6856 53.7627 44.7814C53.5957 44.89 53.3881 44.99 53.14 45.0813C52.8919 45.1727 52.6652 45.2432 52.4599 45.2928C52.056 45.6391 51.6505 45.9936 51.2432 46.3561C50.8359 46.7187 50.4014 47.05 49.9395 47.3502C49.5858 47.5801 49.3004 47.528 49.0833 47.1939C48.8661 46.8598 48.7934 46.5437 48.8652 46.2455C48.9369 45.9473 49.0767 45.6678 49.2845 45.4069C49.4923 45.146 49.739 44.9019 50.0244 44.6744C50.3098 44.447 50.5577 44.237 50.768 44.0444C48.9051 41.2858 47.0502 38.5501 45.2031 35.8372C43.3658 33.1179 41.5404 30.363 39.7267 27.5725C39.343 27.8638 38.9691 28.1487 38.6051 28.4273C38.2346 28.696 37.8578 28.9549 37.4746 29.2039C37.396 29.255 37.3125 29.3093 37.2241 29.3668C37.1292 29.4144 37.0361 29.454 36.9448 29.4854C36.8568 29.5006 36.7723 29.4996 36.6913 29.4824C36.594 29.4618 36.5102 29.3975 36.44 29.2894C36.3186 29.1027 36.2526 28.915 36.2418 28.7264C36.2246 28.5279 36.2511 28.3429 36.3214 28.1715C36.3951 27.9838 36.4914 27.8094 36.6103 27.6483C36.7292 27.4871 36.8626 27.3375 37.0104 27.1995C37.3819 26.8463 37.7678 26.5046 38.1682 26.1745C38.572 25.8282 38.9741 25.4899 39.3745 25.1598C39.7784 24.8135 40.1773 24.4703 40.5713 24.1304C40.9752 23.7841 41.3613 23.4213 41.7298 23.042C42.085 22.6854 42.4242 22.3042 42.7475 21.8984C43.0644 21.4828 43.439 21.1345 43.8713 20.8535C44.1072 20.7002 44.3219 20.6865 44.5154 20.8122C44.7026 20.9282 44.8632 21.0893 44.9973 21.2957C45.1059 21.4627 45.1916 21.6376 45.2545 21.8204C45.3208 21.9869 45.3446 22.1741 45.326 22.3819C45.3181 22.4988 45.2365 22.6636 45.0813 22.8763C44.9295 23.0728 44.7302 23.2932 44.4836 23.5373C44.2468 23.7751 43.9854 24.0288 43.6995 24.2985C43.417 24.552 43.1394 24.8023 42.8668 25.0494C42.5975 25.2803 42.3497 25.4903 42.1232 25.6794C41.8967 25.8686 41.7277 26.0064 41.6162 26.0928C42.612 27.3884 43.5733 28.7063 44.5003 30.0465C45.4371 31.3803 46.3641 32.7206 47.2813 34.0672C48.1984 35.4138 49.1156 36.7604 50.0327 38.1071C50.9499 39.4537 51.8916 40.7843 52.8579 42.099C53.3605 41.6466 53.8712 41.1959 54.39 40.7469C54.9024 40.288 55.4485 39.8702 56.0282 39.4934C56.1953 39.3849 56.378 39.322 56.5765 39.3048C56.7784 39.2714 56.9464 39.3579 57.0805 39.5642Z" fill="white"/>
<path d="M75.4812 29.7C75.5352 29.8673 75.5613 30.0436 75.5595 30.2289C75.5653 30.3994 75.5654 30.5718 75.56 30.7459C75.5198 31.4608 75.4093 32.149 75.2287 32.8106C75.0445 33.4611 74.7812 34.057 74.4387 34.5985C74.0962 35.1399 73.6654 35.6175 73.1462 36.0313C72.6271 36.445 72.0106 36.767 71.2968 36.9973C70.3488 37.3031 69.4699 37.365 68.6601 37.1829C67.8502 37.0009 67.103 36.6694 66.4184 36.1884C65.7301 35.6962 65.1021 35.1046 64.5344 34.4135C63.9778 33.7188 63.4826 33.0043 63.0487 32.27C62.4105 31.2076 61.8336 30.1254 61.318 29.0234C60.7989 27.9103 60.3522 26.7738 59.978 25.6139C59.7586 24.9336 59.5598 24.222 59.3817 23.4791C59.2148 22.7325 59.096 21.9828 59.0255 21.2298C58.9514 20.4656 58.942 19.7114 58.9974 18.967C59.0492 18.2115 59.1859 17.4902 59.4076 16.803C59.6256 16.1047 59.9377 15.4499 60.3438 14.8387C60.7612 14.2238 61.2983 13.675 61.9552 13.1922C62.1905 13.0054 62.4477 12.8486 62.7269 12.7216C63.0025 12.5834 63.2853 12.4676 63.5753 12.374C64.1552 12.187 64.7378 12.1037 65.3232 12.1242C65.9085 12.1447 66.4521 12.2648 66.954 12.4846C67.4671 12.7009 67.9143 13.0183 68.2956 13.4371C68.6881 13.8523 68.9815 14.361 69.1758 14.9632C69.2406 15.164 69.2445 15.329 69.1877 15.4581C69.1308 15.5873 68.9909 15.6878 68.7678 15.7598C68.3552 15.8929 68.0102 15.9303 67.7328 15.872C67.4665 15.8102 67.2286 15.7022 67.0188 15.5483C66.8091 15.3943 66.6162 15.2164 66.4403 15.0145C66.2755 14.8091 66.0938 14.6276 65.8952 14.47C65.6967 14.3125 65.4642 14.2027 65.198 14.1409C64.9318 14.079 64.6035 14.111 64.2131 14.2369C63.8228 14.3628 63.4799 14.5596 63.1846 14.8273C62.8968 15.0802 62.6474 15.3761 62.4366 15.715C62.2369 16.0504 62.0704 16.4119 61.9369 16.7998C61.811 17.1728 61.7092 17.5443 61.6315 17.9141C61.4437 18.9352 61.4151 19.9726 61.5457 21.0263C61.6727 22.0689 61.8963 23.0865 62.2165 24.0791C62.3244 24.4137 62.4759 24.8451 62.6709 25.3732C62.8735 25.8866 63.1052 26.4522 63.366 27.0699C63.638 27.684 63.9449 28.33 64.2867 29.0078C64.6249 29.6744 64.9818 30.3227 65.3574 30.9527C65.7441 31.579 66.1498 32.1685 66.5743 32.7211C67.01 33.2701 67.4484 33.732 67.8894 34.1069C68.3417 34.4782 68.7968 34.7439 69.2548 34.904C69.7239 35.0605 70.1927 35.0632 70.6611 34.9121C71.1407 34.7574 71.5249 34.498 71.8138 34.1339C72.0991 33.7586 72.3088 33.34 72.443 32.8781C72.5848 32.4014 72.6673 31.913 72.6907 31.4129C72.7216 30.8981 72.7243 30.4293 72.6988 30.0066C72.6963 29.8843 72.6918 29.7749 72.6853 29.6785C72.69 29.5785 72.7038 29.4878 72.7268 29.4065C72.761 29.3216 72.8118 29.2498 72.879 29.1912C72.9463 29.1325 73.0524 29.0798 73.1974 29.0331C73.3536 28.9827 73.5484 28.9568 73.7819 28.9553C74.0229 28.9391 74.2562 28.9562 74.4818 29.0066C74.7185 29.0534 74.929 29.1332 75.1132 29.2462C75.2974 29.3592 75.4201 29.5104 75.4812 29.7Z" fill="white"/>
<path d="M96.359 32.8746C96.3657 33.0385 96.2953 33.1821 96.1478 33.3054C96.0004 33.4286 95.8227 33.5297 95.6148 33.6085C95.4069 33.6873 95.1924 33.7488 94.9713 33.793C94.762 33.8367 94.5929 33.8612 94.4641 33.8664C94.429 33.8678 94.4 33.8749 94.377 33.8875C94.3541 33.9002 94.3246 33.8955 94.2885 33.8735C94.0524 33.8362 93.8442 33.7626 93.6638 33.6526C93.4839 33.5544 93.3206 33.432 93.1739 33.2855C93.0276 33.1507 92.8866 32.9981 92.7506 32.8277C92.6147 32.6573 92.4727 32.4813 92.3245 32.2996C91.3397 31.1551 90.4064 29.9791 89.5246 28.7718C88.6541 27.5522 87.857 26.2652 87.1334 24.9106L86.9327 25.1651L87.2082 31.9446C87.2135 32.0734 87.2136 32.22 87.2085 32.3844C87.203 32.5371 87.1797 32.6847 87.1385 32.8271C87.0974 32.9695 87.0319 33.0895 86.9421 33.1869C86.8522 33.2844 86.7253 33.3365 86.5614 33.3431C86.1867 33.3584 85.874 33.3124 85.6234 33.2053C85.3844 33.0978 85.1906 32.9473 85.042 32.754C84.9047 32.5484 84.8069 32.3061 84.7486 32.027C84.6904 31.7479 84.6543 31.4386 84.6405 31.099C84.5958 29.9983 84.5396 28.904 84.4719 27.816C84.4042 26.728 84.348 25.6337 84.3033 24.5331C84.2838 24.053 84.2823 23.5839 84.2989 23.1258C84.3154 22.6677 84.314 22.1987 84.2944 21.7186C84.2264 20.0442 84.0944 18.3841 83.8985 16.7384C83.7021 15.0809 83.4999 13.4237 83.2918 11.7667C83.241 11.3817 83.1843 10.997 83.1217 10.6125C83.0709 10.2275 83.0376 9.84186 83.0219 9.45546C83.0105 9.17444 83.0966 8.98329 83.2801 8.882C83.4636 8.78072 83.6608 8.72579 83.8716 8.71722C84.5273 8.69057 85.0479 8.80429 85.4336 9.05837C85.8192 9.31245 86.0263 9.79076 86.0549 10.4933C86.0982 11.5588 86.1757 12.5995 86.2873 13.6153C86.3977 14.8893 86.4843 16.1524 86.5469 17.4048C86.6212 18.6567 86.6961 19.9204 86.7713 21.1957C87.9717 19.5636 88.8979 17.8253 89.5501 15.9809C90.2019 14.1248 90.6746 12.1938 90.9684 10.188C90.9753 10.0705 90.987 9.92339 91.0032 9.74681C91.0312 9.56974 91.0653 9.39829 91.1055 9.23246C91.1569 9.05445 91.2271 8.90499 91.316 8.78409C91.4161 8.65101 91.5481 8.58114 91.7121 8.57447C91.8994 8.56686 92.094 8.59413 92.296 8.6563C92.4974 8.70675 92.6766 8.78743 92.8336 8.89834C93.0023 9.00876 93.1368 9.14404 93.2371 9.30416C93.3492 9.4638 93.4092 9.64315 93.4173 9.84221C93.4383 10.3574 93.3941 10.8577 93.2848 11.343C93.1872 11.8278 93.084 12.3187 92.9752 12.8157C92.7698 13.821 92.5437 14.7509 92.2969 15.6054C92.0619 16.4594 91.7788 17.286 91.4477 18.0852C91.1278 18.8723 90.7492 19.6559 90.3118 20.436C89.8739 21.2045 89.3493 22.0057 88.7382 22.8398L89.5358 24.2852C90.2045 25.4426 90.9422 26.5678 91.749 27.661C92.5553 28.7424 93.4297 29.7683 94.3722 30.7386C94.6904 31.0658 95.0136 31.3694 95.3416 31.6492C95.6809 31.9169 95.9811 32.2331 96.2422 32.5978C96.3153 32.6652 96.3543 32.7575 96.359 32.8746Z" fill="white"/>
<path d="M126.076 41.8218C125.984 42.0375 125.857 42.1871 125.694 42.2706C125.542 42.3587 125.342 42.35 125.094 42.2445C124.964 42.1894 124.837 42.1159 124.71 42.0239C124.579 41.9427 124.46 41.8476 124.354 41.7387C124.116 41.5485 123.931 41.3866 123.796 41.2531C123.673 41.1242 123.591 40.9875 123.551 40.8429C123.516 40.7138 123.523 40.5637 123.57 40.3928C123.617 40.2219 123.695 39.9939 123.804 39.709C124.658 37.4617 125.492 35.2313 126.306 33.018C127.136 30.7984 127.906 28.5406 128.615 26.2444C128.148 26.9242 127.685 27.6064 127.229 28.2908C126.772 28.9752 126.305 29.6681 125.829 30.3695C125.338 31.1033 124.846 31.8555 124.353 32.6262C123.87 33.4014 123.318 34.1154 122.697 34.7679C122.445 35.0302 122.194 35.2162 121.943 35.3262C121.697 35.4253 121.396 35.3992 121.041 35.2478C120.782 35.1377 120.59 35.0051 120.465 34.85C120.344 34.6841 120.248 34.4774 120.175 34.2299C120.099 34.0193 120.072 33.6639 120.093 33.1637C120.115 32.6636 120.156 32.0888 120.216 31.4392C120.291 30.7835 120.382 30.0901 120.49 29.3589C120.597 28.6277 120.703 27.9281 120.809 27.26C120.92 26.5811 121.024 25.963 121.121 25.4057C121.218 24.8484 121.289 24.4266 121.334 24.1403L120.398 26.3401C119.788 27.7743 119.207 29.2146 118.656 30.6609C118.104 32.1073 117.592 33.5643 117.121 35.032C117.02 35.3585 116.93 35.6895 116.851 36.0252C116.783 36.3654 116.682 36.6919 116.549 37.0047C116.43 37.285 116.255 37.4271 116.024 37.4307C115.804 37.439 115.581 37.395 115.354 37.2986C114.74 37.0372 114.32 36.7059 114.096 36.3049C113.887 35.8977 113.918 35.3759 114.189 34.7397C114.744 33.4349 115.262 32.1271 115.743 30.8164C116.224 29.5056 116.743 28.1979 117.298 26.8931C117.376 26.7097 117.511 26.3916 117.704 25.9387C117.907 25.4904 118.145 24.9612 118.417 24.3511C118.694 23.7303 118.992 23.0609 119.31 22.343C119.643 21.6189 119.979 20.8894 120.317 20.1545C120.655 19.4196 120.984 18.7063 121.304 18.0146C121.628 17.312 121.921 16.685 122.181 16.1334C122.441 15.5819 122.66 15.1274 122.837 14.7699C123.03 14.4062 123.159 14.1935 123.223 14.1318C123.342 14.0038 123.442 13.932 123.525 13.9164C123.619 13.9053 123.741 13.9319 123.892 13.9962C124.302 14.1705 124.603 14.4067 124.794 14.7047C125.001 14.9965 125.064 15.3733 124.982 15.8352C125.037 16.1258 125.033 16.6144 124.97 17.3009C124.912 17.9765 124.821 18.7592 124.697 19.649C124.573 20.5387 124.422 21.4931 124.243 22.5122C124.079 23.5252 123.913 24.4989 123.745 25.4333C123.588 26.3724 123.438 27.2322 123.297 28.0127C123.167 28.7978 123.07 29.3997 123.007 29.8184C124.108 28.0967 125.211 26.3881 126.314 24.6925C127.418 22.997 128.51 21.2837 129.59 19.5529C129.777 19.2631 129.961 18.9787 130.144 18.6997C130.337 18.4253 130.5 18.1317 130.633 17.819C130.716 17.6249 130.764 17.4355 130.779 17.2508C130.799 17.0553 130.848 16.8659 130.925 16.6826C131.022 16.4562 131.149 16.3512 131.308 16.3677C131.482 16.378 131.66 16.4222 131.844 16.5001C132.016 16.5735 132.21 16.6877 132.424 16.8425C132.638 16.9974 132.83 17.1746 133 17.3742C133.181 17.5783 133.312 17.7934 133.394 18.0194C133.487 18.25 133.488 18.4731 133.396 18.6887C133.235 19.0662 133.033 19.4514 132.79 19.8444C132.403 21.832 131.948 23.7974 131.427 25.7407C130.911 27.6732 130.323 29.5944 129.663 31.5042C129.114 33.1552 128.542 34.7839 127.947 36.3904C127.364 38.0015 126.796 39.6195 126.245 41.2443C126.226 41.3505 126.203 41.4491 126.177 41.5399C126.151 41.6308 126.117 41.7247 126.076 41.8218Z" fill="white"/>
<path d="M144.44 50.8965C144.313 51.0495 144.126 51.1454 143.88 51.1843C143.643 51.2308 143.382 51.2502 143.099 51.2426C142.815 51.235 142.535 51.2146 142.257 51.1815C141.987 51.1394 141.763 51.1056 141.586 51.08C141.115 51.0228 140.655 50.9521 140.207 50.8679C139.767 50.7913 139.333 50.6808 138.904 50.5366C138.484 50.4 138.073 50.225 137.671 50.0118C137.277 49.8061 136.896 49.5494 136.527 49.2417L136.289 49.0886C135.992 48.8409 135.721 48.5617 135.477 48.251C135.249 47.9389 135.065 47.6102 134.926 47.265C134.794 46.9109 134.719 46.5433 134.701 46.1621C134.683 45.781 134.748 45.3924 134.895 44.9964C135.017 44.6858 135.194 44.3453 135.427 43.9748C135.659 43.6042 135.912 43.2277 136.185 42.8452C136.468 42.4702 136.742 42.1042 137.01 41.7472C137.293 41.3887 137.543 41.0707 137.759 40.7932C139.921 37.9266 142.11 35.0826 144.325 32.261C144.57 31.931 144.819 31.6048 145.073 31.2823C145.326 30.9598 145.585 30.641 145.847 30.326C146.298 29.786 146.712 29.3533 147.09 29.0278C147.468 28.7024 147.853 28.497 148.245 28.4116C148.637 28.3262 149.053 28.3758 149.494 28.5606C149.944 28.7528 150.462 29.0928 151.047 29.5806C151.632 30.0685 152.213 30.5608 152.79 31.0577C153.377 31.562 153.967 32.0619 154.561 32.5572C154.741 32.7074 154.925 32.853 155.112 32.9941C155.307 33.1262 155.476 33.2898 155.619 33.4849C155.712 33.593 155.78 33.7033 155.823 33.8158C155.874 33.9194 155.843 34.0386 155.731 34.1736C155.461 34.4976 155.15 34.6506 154.799 34.6324C154.455 34.6053 154.113 34.4949 153.77 34.3012C153.428 34.1075 153.095 33.8756 152.771 33.6054C152.464 33.3337 152.207 33.1116 152 32.939L150.245 31.4754C150.065 31.3253 149.885 31.1752 149.705 31.0251C149.525 30.875 149.337 30.7339 149.142 30.6018C148.976 30.6917 148.823 30.8012 148.685 30.9302C148.547 31.0592 148.414 31.2002 148.287 31.3532C147.469 32.3342 146.684 33.3204 145.934 34.312C145.192 35.311 144.435 36.3198 143.662 37.3383C144.257 37.7586 144.856 38.1662 145.457 38.561C146.059 38.9558 146.672 39.3454 147.298 39.7297C147.379 39.7973 147.455 39.8528 147.525 39.8964C147.605 39.9474 147.68 40.003 147.752 40.063C147.941 40.2206 148.031 40.3789 148.02 40.538C148.019 40.7045 147.943 40.8778 147.793 41.0578C147.688 41.1838 147.581 41.2933 147.473 41.3863C147.374 41.4868 147.257 41.5723 147.122 41.6427C146.909 41.7702 146.696 41.8144 146.485 41.7753C146.273 41.7362 146.062 41.6596 145.852 41.5455C145.65 41.4224 145.45 41.2783 145.252 41.1132C145.063 40.9556 144.892 40.8212 144.741 40.7101C144.348 40.4129 143.963 40.1149 143.587 39.8162C143.219 39.525 142.843 39.2345 142.459 38.9448C142.311 39.1413 142.088 39.4361 141.791 39.8291C141.493 40.2221 141.155 40.6646 140.775 41.1566C140.412 41.6471 140.033 42.1556 139.64 42.6821C139.256 43.2162 138.894 43.7232 138.555 44.2032C138.223 44.6742 137.941 45.095 137.708 45.4655C137.475 45.836 137.333 46.0986 137.28 46.2531C137.222 46.5246 137.229 46.7445 137.303 46.9125C137.383 47.0716 137.527 47.2375 137.734 47.4101C138.067 47.6878 138.471 47.9175 138.945 48.0992C139.427 48.2719 139.926 48.4056 140.442 48.5004C140.965 48.5861 141.486 48.6388 142.004 48.6584C142.53 48.6856 143.008 48.6798 143.437 48.6409C143.604 48.6425 143.77 48.6441 143.937 48.6456C144.111 48.6382 144.265 48.6908 144.4 48.8033C144.535 48.9159 144.632 49.0652 144.691 49.2513C144.749 49.4374 144.775 49.6347 144.769 49.8433C144.771 50.0428 144.738 50.2371 144.672 50.4262C144.615 50.6227 144.538 50.7795 144.44 50.8965Z" fill="white"/>
<path d="M152.353 59.0297C151.944 59.3435 151.597 59.3145 151.312 58.9425C151.226 58.8309 151.133 58.6807 151.033 58.492C150.939 58.3125 150.856 58.1177 150.784 57.9075C150.711 57.6973 150.659 57.494 150.626 57.2975C150.61 57.1031 150.631 56.9388 150.691 56.8045C150.764 56.6303 150.87 56.4897 151.01 56.3827C151.159 56.2686 151.312 56.1509 151.47 56.0297C153.492 54.3906 155.485 52.7437 157.45 51.0888C159.432 49.4361 161.427 47.7727 163.437 46.0986C163.859 45.7448 164.282 45.391 164.705 45.0372C165.137 44.6763 165.576 44.3247 166.022 43.9824C166.236 43.8183 166.412 43.7203 166.55 43.6884C166.697 43.6493 166.864 43.7506 167.049 43.9924C167.142 44.1133 167.223 44.2577 167.293 44.4257C167.372 44.5866 167.425 44.7524 167.453 44.9232C167.497 45.0962 167.508 45.2649 167.487 45.4292C167.481 45.5956 167.436 45.7485 167.351 45.8877C167.298 45.9726 167.076 46.1942 166.687 46.5523C166.304 46.9197 165.8 47.3799 165.176 47.9327C164.56 48.4785 163.857 49.0919 163.065 49.7732C162.273 50.4544 161.453 51.157 160.605 51.881C159.774 52.6072 158.939 53.3288 158.101 54.0456C157.272 54.7554 156.499 55.4141 155.784 56.0219C155.076 56.6389 154.453 57.1754 153.917 57.6312C153.387 58.0963 153.008 58.439 152.778 58.6595C152.704 58.7166 152.633 58.7783 152.566 58.8446C152.499 58.911 152.428 58.9727 152.353 59.0297ZM148.397 58.6083C148.49 58.537 148.585 58.516 148.681 58.5454C148.787 58.5677 148.885 58.6183 148.975 58.697C149.081 58.7779 149.17 58.8648 149.241 58.9578C149.319 59.0601 149.387 59.1484 149.444 59.2228C149.516 59.3158 149.593 59.4263 149.676 59.5543C149.776 59.6845 149.85 59.8196 149.899 59.9597C149.956 60.0927 149.977 60.2249 149.959 60.3564C149.958 60.49 149.897 60.6032 149.777 60.6959C149.73 60.7315 149.624 60.8053 149.459 60.9173C149.31 61.0314 149.144 61.1515 148.96 61.2777C148.783 61.4133 148.614 61.5288 148.451 61.6243C148.304 61.722 148.222 61.7697 148.206 61.7675C148.061 61.7902 147.937 61.7447 147.835 61.6309C147.724 61.5243 147.626 61.4152 147.54 61.3036C147.326 61.0246 147.18 60.8047 147.1 60.6438C147.021 60.483 146.999 60.3379 147.033 60.2086C147.073 60.0886 147.158 59.9576 147.285 59.8156C147.419 59.6829 147.593 59.5053 147.807 59.2826C147.904 59.1785 147.994 59.065 148.077 58.9422C148.16 58.8194 148.267 58.7081 148.397 58.6083Z" fill="white"/>
</svg>
