<svg class = "drop3" width="132" height="140" viewBox="0 0 132 140" fill="none" xmlns="http://www.w3.org/2000/svg">
<path d="M1 1.20457C1.58206 1.12696 2.2639 1.12806 3.01463 1.23828C39.2218 1.83968 98.385 2.58999 121.409 2.15483C123.722 1.13832 126.486 0.712672 129.765 1.20457C133.1 1.70481 129.469 2.00247 121.409 2.15483C114.524 5.1801 111.631 13.4388 111.021 18.3189C110.749 25.1103 109.065 38.6931 104.501 38.6931C97.9814 40.649 96.8948 31.9017 97.1664 27.2835C97.4381 19.4055 96.0255 3.64941 88.2018 3.64941C71.9024 2.99744 74.3473 77.2683 77.6071 114.485C78.9654 122.635 79.0741 138.934 68.6425 138.934C54.299 139.586 57.7762 97.9142 61.3078 76.9966C63.7527 65.3154 67.1755 37.5521 61.3078 19.9488C55.44 2.34546 46.3666 13.7007 42.5635 21.5788C36.8587 27.2836 23.8192 35.2702 17.2994 21.5788C14.5052 6.48998 7.51953 1.89964 3.01463 1.23828C2.33486 1.22699 1.66319 1.21575 1 1.20457Z" fill="black" stroke="black"/>
</svg>
