<svg width="163" height="221" viewBox="0 0 163 221" fill="none" xmlns="http://www.w3.org/2000/svg">
<path d="M0 3.92821C1.88292 3.30057 3.9313 3.18347 6.03831 3.75452C70.8191 1.89786 183.534 -1.12236 159.5 0.428252C128.5 2.42825 131.5 73.4283 130 94.4283C128.8 111.228 132.833 172.428 135 200.928C135.667 207.262 134.9 219.928 126.5 219.928C112.5 223.928 120.5 170.928 122.5 148.428C124.1 130.428 124.167 77.5949 124 53.4283C124.5 44.5949 122.3 26.9283 109.5 26.9283C87 25.9283 92 57.4283 94.5 79.9283C96.5 97.9283 93.6667 103.762 92 104.428C88.1667 105.762 80.8 105.628 82 94.4283C82.4 88.0283 84.1667 64.4283 85 53.4283C87.1667 39.2616 85.5 9.92825 61.5 5.92825C20.5 -1.57175 36 136.428 38 170.928C42.4 197.328 38.5 205.262 36 205.928C28.6667 209.928 15.7 209.528 22.5 175.928C38.2405 45.1072 20.7165 7.7327 6.03831 3.75452C3.97492 3.81366 1.96016 3.87162 0 3.92821Z" fill="black"/>
</svg>
