<svg class = "home-tag" width="795" height="439" viewBox="0 0 795 439" fill="none" xmlns="http://www.w3.org/2000/svg">
<g clip-path="url(#clip0_274_3)">
<path d="M790.904 216.473C786.45 208.277 778.788 202.754 769.88 200.972C771.127 191.173 771.127 181.017 769.702 170.683C767.742 155.005 760.972 141.642 750.281 131.665C741.017 123.113 730.505 117.055 719.102 113.848C711.797 111.71 704.314 110.641 697.187 110.641C693.446 110.641 689.704 110.997 686.141 111.532C668.859 114.204 659.772 122.756 654.961 130.061C654.605 129.527 654.249 129.17 653.892 128.636L653.536 128.279L653.18 127.923C643.202 117.055 629.662 107.434 612.914 99.2379C612.736 99.0598 612.379 98.8816 612.201 98.8816C609.528 97.0999 607.034 95.6746 605.074 94.2492C603.471 93.1802 602.936 92.6457 602.936 92.6457C602.045 91.7548 601.333 90.864 600.62 89.795C600.442 89.4387 600.085 89.0823 599.907 88.726C599.016 86.9443 598.126 85.3408 597.057 83.7373C595.809 81.7774 594.206 79.8176 592.424 78.0359C586.01 69.8401 576.745 65.3859 566.412 65.3859C561.779 65.3859 557.147 66.2768 552.515 68.2366C544.675 71.0873 537.727 76.4324 531.134 84.2718C527.927 87.657 525.255 91.2204 523.117 95.1401C520.801 99.2379 519.197 103.336 518.128 107.612C517.95 108.325 517.772 108.859 517.594 109.572C516.703 113.67 512.605 116.342 508.329 116.164C507.616 116.164 506.903 116.164 506.191 116.164C497.104 116.164 488.73 119.549 481.96 125.607C481.425 126.141 480.891 126.498 480.356 127.032C476.793 125.429 473.23 124.003 469.488 122.934L468.954 122.756H468.775C467.172 122.4 465.568 122.043 464.143 121.687C450.424 119.727 437.24 123.825 424.768 133.624L424.233 134.159C422.095 135.941 420.135 137.722 417.997 139.682C415.325 132.912 411.94 126.854 407.664 121.331C400.715 112.422 392.519 105.83 382.898 101.91C378.088 99.9506 373.277 98.7034 368.467 98.1689C368.645 97.9907 368.823 97.8126 369.001 97.6344L369.536 97.0999L370.07 96.5654C380.226 86.4098 380.76 75.5415 379.691 69.4838C377.909 57.3683 370.248 47.0346 356.529 39.017L355.638 38.4825L354.748 38.1261C349.937 34.5628 345.126 32.0684 340.316 30.2867C334.615 28.3269 329.626 27.436 324.637 27.436C317.867 27.436 311.275 29.3959 305.217 33.3156L303.079 34.5628L301.297 36.3445C298.981 38.4825 296.665 40.7987 294.349 43.293C293.28 37.2353 290.785 31.5339 287.044 26.1889C281.52 18.1713 274.037 11.9354 265.129 7.30301C256.577 2.8488 246.956 0.532606 236.622 0.17627C235.909 0.17627 235.197 0.17627 234.484 0.17627C223.081 0.17627 212.569 3.38332 203.126 9.79738C193.683 16.2114 183.884 24.4072 173.55 33.8501C163.751 43.1149 153.774 53.2705 144.153 63.9606C134.531 74.8288 124.91 86.2316 116.002 98.1689C108.875 107.434 102.283 116.698 96.4034 125.785C92.6619 127.567 88.2076 129.527 83.3971 132.021C74.6668 136.297 65.7584 141.286 56.6718 146.631C47.4071 152.154 38.6768 157.855 30.4811 163.913C20.86 170.862 13.9114 177.454 8.92269 183.69C1.79596 192.776 -1.05472 204.179 0.726961 216.295C1.97414 224.49 4.64667 232.33 8.74454 239.278C9.81355 241.238 11.0607 243.02 12.3079 244.802C13.0206 251.037 10.8825 257.273 8.56636 262.975C7.85369 264.756 6.96286 266.716 6.96286 268.676C6.96286 270.636 8.38819 272.774 10.348 273.13C12.3079 273.487 14.2678 271.705 14.9804 269.745C15.6931 267.785 15.5149 265.647 15.5149 263.687C15.5149 261.549 15.8713 259.411 17.2966 257.986C17.653 257.63 18.0093 257.451 18.3656 257.273C19.6128 257.095 20.5037 258.164 21.2163 259.055C24.4234 262.797 29.0557 265.291 34.0445 265.825C33.5099 272.239 33.5099 278.297 33.8663 283.82C34.9353 297.896 37.9642 309.298 43.3092 319.098C48.2979 328.184 53.9993 335.489 60.2352 341.191L60.9479 341.903L61.8387 342.438C65.7584 345.467 70.3908 347.605 75.5577 348.674C78.2302 349.386 81.0809 349.565 83.7534 349.565C85.8914 349.565 88.0295 349.386 90.1675 349.03C90.8802 353.128 90.702 357.582 90.3457 361.502C89.8112 367.738 89.0985 374.152 88.2076 380.388C87.495 386.267 86.426 392.147 83.7534 397.314C81.6154 401.59 78.2302 405.331 76.9831 409.964C75.0232 416.912 78.5866 425.108 85.0006 428.493C86.2478 429.028 87.495 429.562 88.7421 429.562C91.771 429.562 94.2654 427.068 95.1562 424.217C96.0471 421.366 95.8689 418.338 95.6907 415.309C93.909 392.681 91.5928 369.519 97.2942 347.605C97.2942 347.248 97.4724 346.892 97.6506 346.536C103.53 343.863 108.341 339.587 111.726 333.886C116.715 325.512 117.249 315.178 113.329 305.379C112.795 303.953 112.26 301.103 112.795 295.758C113.508 288.809 114.933 281.148 117.071 273.13C119.387 264.756 122.416 256.026 125.801 247.474C129.543 238.387 133.284 229.657 137.026 221.818C140.055 215.404 142.905 209.702 145.4 204.714C143.084 210.593 140.767 216.651 138.629 222.53C130.077 244.98 122.594 267.785 116.358 290.413C111.904 304.844 116.893 319.454 129.721 328.897C136.848 334.064 145.043 337.449 153.952 338.696C156.802 339.053 159.831 339.409 162.682 339.409C168.562 339.409 174.263 338.518 179.964 336.736C192.971 332.639 202.592 322.839 206.155 309.833L206.333 309.477L206.511 309.12C206.69 308.408 206.868 307.517 207.046 306.804C211.857 318.92 218.983 328.719 228.07 335.846C239.829 345.288 250.341 350.099 260.853 350.455C262.991 350.634 264.773 350.812 266.376 350.99C267.623 350.99 268.692 351.168 269.761 351.168C271.365 351.168 273.146 350.99 274.572 350.812C284.549 350.277 293.636 346.714 301.119 340.122L327.131 318.385C327.844 319.454 328.735 320.345 329.448 321.414C331.764 324.977 331.764 329.253 331.764 333.529C331.586 338.518 331.408 343.507 330.873 348.674C330.517 353.128 329.982 357.582 328.913 361.858C328.379 363.818 327.844 365.778 327.666 367.916C327.666 370.054 328.2 372.192 329.626 373.617C331.942 375.755 335.862 375.221 338.178 373.083C340.494 370.945 341.207 367.56 341.029 364.353C340.85 361.145 339.603 358.117 338.534 355.266C336.753 350.634 335.149 345.823 334.971 340.834C334.793 337.093 335.505 333.529 336.574 329.966C337.822 325.868 339.425 321.77 340.85 317.672C341.385 315.891 341.919 314.109 342.454 312.149C342.632 311.437 342.81 310.724 342.988 310.011C344.592 309.12 346.017 308.229 347.443 307.16C354.035 302.35 360.627 295.758 367.398 287.206C369.892 290.413 372.921 293.62 376.484 296.292C384.68 302.706 393.945 306.982 403.922 309.298H404.1C408.198 310.189 412.296 310.724 416.038 310.724C428.331 310.724 436.527 305.913 441.337 301.815L442.228 301.103L442.941 300.39C444.544 298.787 446.148 297.183 447.752 295.58C450.78 292.373 455.947 292.016 459.332 294.867C460.758 295.936 462.183 297.005 463.609 298.074C468.419 301.281 473.586 304.132 478.753 306.626C480.178 313.753 479.465 321.236 476.793 328.006C476.258 329.432 475.546 330.857 475.546 332.282C475.546 335.489 478.753 337.984 481.96 338.34C483.029 338.518 484.098 338.34 484.989 337.627C485.701 337.093 486.058 336.202 486.414 335.133C487.839 329.61 484.811 324.086 484.454 318.563C484.276 315.534 484.632 312.327 485.523 309.477C487.661 310.189 489.799 311.08 492.115 311.615L493.541 311.971L494.966 312.149C499.777 313.04 504.231 313.396 508.507 313.396C516.524 313.396 523.651 311.971 530.065 308.942L531.134 308.408C531.491 308.229 531.847 308.051 532.203 307.873L533.272 307.16C533.985 306.626 534.698 306.091 535.589 305.557C540.755 301.994 548.06 305.201 548.951 311.437C550.555 322.305 554.831 331.926 561.423 340.122C571.4 353.306 583.694 361.502 597.947 364.887C602.045 365.778 605.965 366.312 609.885 366.312C618.615 366.312 626.633 363.818 633.047 359.007C633.581 361.858 635.363 364.531 638.035 364.174C641.064 363.818 642.311 360.077 642.311 357.048C642.49 354.553 642.311 352.059 642.133 349.565C642.49 349.03 642.846 348.674 643.202 348.139L648.547 339.943C649.438 342.26 649.26 344.932 648.725 347.605C647.3 357.048 645.875 366.669 644.449 376.112C643.915 379.319 643.559 382.704 644.984 385.555C646.409 388.405 650.685 390.009 652.823 387.693C654.249 386.267 654.427 383.951 653.892 381.991C653.358 380.031 652.289 378.25 651.576 376.468C650.151 372.37 650.507 367.916 651.042 363.64C651.932 355.622 652.823 347.605 654.783 339.765C656.03 335.133 657.456 330.322 657.812 325.69L658.703 324.443C662.088 319.098 658.881 312.149 652.645 311.258L642.846 310.011C638.035 309.298 634.828 305.022 635.719 300.212C636.076 298.43 636.432 296.649 636.788 294.689C642.668 299.499 649.26 303.597 656.387 306.804C664.404 310.367 672.778 312.862 680.974 314.109C683.825 314.465 686.675 314.644 689.348 314.644C697.544 314.644 705.205 312.862 711.797 309.12C719.102 305.201 725.694 300.034 731.396 293.62C736.028 288.275 740.126 282.751 743.689 277.228C745.115 275.09 746.362 272.952 747.431 270.814C747.609 270.814 747.787 270.814 747.965 270.814C748.322 270.814 748.678 270.814 748.856 270.814C749.034 271.883 748.856 272.774 748.856 273.843C748.322 282.751 746.362 291.66 744.402 300.39C744.046 302.172 743.689 303.953 742.977 305.735C742.264 307.695 741.373 309.655 741.017 311.793C740.66 313.931 741.017 316.247 742.442 317.672C744.046 319.276 746.896 319.632 748.856 318.207C750.282 317.138 750.994 315.534 751.172 313.931C751.35 312.327 751.172 310.546 750.994 308.942C750.638 306.091 750.46 303.241 750.103 300.39C749.925 298.787 749.747 297.183 749.747 295.758C749.747 293.798 749.925 292.016 750.281 290.056C750.816 285.958 751.351 281.682 751.885 277.585C752.063 276.872 752.063 275.981 752.42 275.446C752.776 274.734 753.667 274.377 754.379 274.556C755.092 274.734 755.448 275.446 755.627 276.159C756.517 279.01 755.27 282.217 755.092 285.246C755.092 285.958 755.092 286.849 755.27 287.384C755.983 288.987 757.765 289.878 759.546 290.056C760.081 290.234 760.793 290.234 761.15 289.878C761.506 289.522 761.506 289.165 761.684 288.809C761.862 287.027 761.15 285.246 760.615 283.464C759.368 279.366 759.368 274.912 760.793 270.814C762.753 270.636 764.713 270.458 766.851 270.28C777.185 269.389 786.272 263.153 791.26 253.175C793.933 247.83 795.358 241.951 795.358 235.715C795.358 228.054 793.933 221.996 790.904 216.473Z" fill="black"/>
<path d="M77.1612 439.361C80.1132 439.361 82.5063 437.128 82.5063 434.373C82.5063 431.618 80.1132 429.384 77.1612 429.384C74.2092 429.384 71.8162 431.618 71.8162 434.373C71.8162 437.128 74.2092 439.361 77.1612 439.361Z" fill="black"/>
<path d="M663.157 379.853C666.109 379.853 668.502 377.62 668.502 374.864C668.502 372.109 666.109 369.876 663.157 369.876C660.205 369.876 657.812 372.109 657.812 374.864C657.812 377.62 660.205 379.853 663.157 379.853Z" fill="black"/>
<path d="M253.548 86.5879C256.221 79.9957 259.071 72.3345 262.1 63.6042C265.129 54.874 267.623 47.5691 269.583 41.3332C271.009 36.3444 270.118 31.7121 267.089 27.2579C264.06 22.8037 259.962 19.4184 254.795 16.7459C249.628 14.0734 243.927 12.6481 237.513 12.4699C231.099 12.2917 225.219 13.8952 220.052 17.4586C211.679 23.16 202.948 30.2867 193.684 39.017C184.419 47.7472 175.154 57.1901 165.889 67.5239C156.625 77.8577 147.716 88.726 139.164 99.9506C130.612 111.175 122.951 122.222 116.002 132.912C111.548 134.515 105.134 137.366 97.1163 141.464C89.0987 145.562 80.7248 150.016 72.1727 155.183C63.6206 160.35 55.603 165.517 48.12 171.04C40.6369 176.563 35.2919 181.374 31.9067 185.65C29.2341 189.035 28.3433 193.133 29.0559 197.943C29.7686 202.754 31.3721 207.208 33.6883 211.306C36.0045 215.404 38.8552 218.611 42.0622 220.927C45.2693 223.243 48.12 223.778 50.7925 222.352C50.9707 218.611 52.9305 214.335 56.4939 209.702C60.0573 205.07 63.977 200.794 68.253 196.696C72.529 192.598 76.4488 189.213 80.0121 186.362C83.5755 183.512 85.5353 182.086 85.7135 182.086C75.9142 201.15 69.5002 217.542 66.2932 231.617C63.0861 245.692 61.8389 257.63 62.5516 267.607C63.2643 277.584 65.4023 285.78 68.7875 292.016C72.1727 298.252 75.9143 303.241 80.0121 306.804C80.903 307.517 82.1501 308.051 83.7536 308.408C85.3572 308.764 86.7825 308.764 88.0297 308.408C89.2769 308.051 90.3459 307.339 91.0586 306.091C91.7712 304.844 91.5931 303.241 90.7022 301.103C88.386 294.867 87.4952 287.562 88.386 279.01C89.2769 270.458 90.8804 261.371 93.5529 251.928C96.2254 242.485 99.4325 232.864 103.352 223.243C107.272 213.622 111.192 204.714 115.111 196.34C119.031 187.966 122.594 180.839 125.98 174.603C129.365 168.367 131.859 164.091 133.463 161.775C136.848 158.924 141.658 156.43 147.894 154.114C154.13 151.798 160.544 150.194 166.958 149.125C173.372 148.056 179.074 147.7 184.062 148.056C189.051 148.412 191.724 149.481 192.258 151.441C182.993 173.712 174.263 195.983 165.889 217.898C157.515 239.813 150.389 261.906 144.153 283.999C142.906 287.562 144.153 290.591 147.716 293.263C151.279 295.936 155.377 297.539 160.188 298.252C164.998 298.965 169.631 298.608 174.085 297.183C178.539 295.758 181.39 292.907 182.637 288.631C186.2 274.199 190.655 258.342 196.178 241.238C201.701 224.134 207.581 206.673 213.995 189.035C220.409 171.396 227.001 153.757 233.95 136.119C240.72 118.48 247.312 102.089 253.548 86.5879ZM231.812 53.0923C230.386 57.5465 228.248 63.426 225.219 70.5528C222.19 77.6795 218.984 85.519 215.242 94.2492C211.5 102.979 207.937 111.175 204.374 119.015C197.425 118.124 190.833 117.411 184.597 117.233C178.361 117.055 171.056 117.946 162.682 120.084C174.798 102.979 186.557 88.5478 197.96 76.6105C209.362 64.6732 220.765 54.6958 232.168 46.6782C233.237 46.5 233.237 48.6381 231.812 53.0923Z" fill="#FCCC0A"/>
<path d="M286.687 173.534C294.705 151.619 304.682 130.596 316.263 110.463C328.201 90.5077 340.316 74.8288 352.966 63.4261C354.57 61.8225 355.282 60.3972 355.104 59.15C354.57 55.4085 351.184 51.4888 344.77 47.7473L342.632 46.6782C339.247 44.0057 336.218 42.224 333.546 41.3332C330.873 40.4423 328.557 39.9078 326.597 39.9078C324.994 39.9078 323.212 40.4423 321.252 41.6895C315.016 47.3909 308.424 55.4085 301.475 65.7423C294.527 76.076 287.222 88.726 279.561 103.692C271.899 118.836 265.129 133.981 258.893 149.125C252.657 164.269 247.312 179.236 242.858 194.202C238.047 209.168 234.662 222.53 232.702 234.468C230.742 246.405 229.852 256.739 230.386 265.469C230.386 266.894 230.386 268.32 230.564 269.745C230.742 271.17 230.921 272.418 231.099 273.665C234.128 285.958 239.473 295.045 246.778 300.746C254.083 306.626 260.14 309.655 264.594 309.655C266.911 309.833 268.871 310.011 270.474 310.189C272.078 310.368 273.325 310.189 274.216 310.011C278.67 310.011 282.589 308.586 285.975 305.735C275.463 305.557 269.405 301.281 267.445 293.263C266.733 289.165 266.198 285.78 265.842 282.751C265.485 279.723 265.129 277.406 264.951 275.446C264.416 264.222 265.664 251.394 268.514 236.962C272.078 216.473 278.135 195.449 286.687 173.534Z" fill="#FCCC0A"/>
<path d="M397.508 142.355C395.548 134.872 392.698 128.457 388.6 123.291C384.502 118.124 379.87 114.382 374.525 112.066C369.18 109.75 364.369 109.572 360.093 111.531C367.042 116.698 370.961 123.825 371.852 132.555C372.743 141.286 371.852 150.907 369.18 161.062C366.507 171.218 362.409 181.552 357.064 192.064C351.719 202.576 346.374 212.018 340.851 220.392C335.328 228.766 330.339 235.715 325.885 241.238C321.43 246.761 318.58 249.612 317.333 249.79C317.154 245.692 317.867 239.456 319.649 230.904C321.43 222.352 323.568 213.444 326.063 204.179C328.557 194.914 331.052 186.184 333.724 177.988C336.397 169.793 338.535 164.091 340.138 160.706C340.851 159.102 340.138 157.143 338 155.183C335.862 153.223 333.19 151.441 330.161 150.016C327.132 148.591 323.925 147.7 320.54 147.343C317.154 146.987 314.66 147.7 313.057 149.303C311.631 150.729 310.028 153.757 308.068 158.39C306.108 163.022 304.148 168.724 302.188 175.494C300.228 182.264 298.09 189.569 296.13 197.409C294.171 205.248 292.389 213.087 291.142 220.749C289.895 228.41 289.004 235.715 288.469 242.307C287.935 248.899 288.113 254.423 288.826 258.699C289.538 262.44 291.676 265.647 295.24 268.32C298.803 270.992 302.901 272.774 307.533 273.843C312.166 274.912 316.798 275.268 321.609 274.912C326.419 274.556 330.161 273.308 333.011 271.17C338.178 267.429 344.058 261.371 350.294 252.997C356.53 244.623 362.765 235.537 368.823 225.381C374.881 215.225 380.404 204.892 385.393 194.38C390.382 183.868 394.123 174.247 396.796 165.695C399.112 157.677 399.29 149.838 397.508 142.355Z" fill="#FCCC0A"/>
<path d="M635.185 131.843C627.167 123.112 615.765 115.273 601.333 108.325C597.591 106.008 594.384 103.87 591.712 102.089C589.039 100.307 587.079 98.7034 585.654 97.2781C582.803 94.4274 580.309 91.2204 578.171 87.657C577.637 86.4098 577.102 85.3408 576.389 84.2718C575.677 83.2028 574.786 82.1338 573.539 80.8866C571.401 77.5014 568.194 76.7887 563.918 78.7486C560.354 79.9958 556.613 82.8464 552.871 87.657C550.911 89.6168 549.486 91.5767 548.239 93.7147C546.992 95.8527 546.279 97.9908 545.744 100.129C544.319 104.583 545.21 107.79 548.595 109.394C558.572 115.808 563.027 126.676 562.136 141.82C560.889 149.481 559.285 157.321 556.969 165.338C554.653 173.356 551.624 181.73 547.526 190.282C543.428 198.656 539.508 206.139 535.411 213.088C531.313 220.036 527.037 226.094 522.582 231.261C513.852 242.664 507.26 246.94 502.984 244.089C499.599 241.06 499.421 230.548 502.271 212.731C505.3 195.093 514.209 173.89 528.996 148.947C530.956 145.205 530.066 141.464 526.502 137.901C522.761 133.803 518.485 131.13 513.674 129.705C508.685 127.567 504.587 128.101 501.559 131.13C500.668 131.843 499.242 133.446 497.639 135.762L493.363 142.177C492.472 143.424 491.581 144.493 491.047 145.384C490.512 146.274 489.978 147.343 489.443 148.234C487.305 146.631 484.989 145.027 482.316 143.602C476.437 139.148 470.201 135.941 463.787 133.981C457.373 132.377 450.602 134.337 443.476 140.038C429.757 151.619 417.641 167.655 407.129 187.788C401.606 198.3 397.152 208.455 393.767 218.254C390.381 228.054 388.065 237.853 386.818 247.296C386.818 252.285 389.312 256.739 394.301 260.48C399.468 264.578 405.169 267.251 411.405 268.676C417.819 270.101 422.63 269.567 425.659 266.894C437.774 254.779 448.821 241.773 458.798 227.697C461.471 224.134 463.787 220.927 466.103 218.076C468.419 215.226 470.379 212.553 472.339 209.881C468.597 224.669 467.35 236.428 468.776 245.514C470.023 251.75 473.764 256.917 480.178 261.193C486.771 265.647 493.897 269.032 501.202 271.17C509.22 272.596 515.634 272.239 520.088 270.101C537.37 258.699 553.406 237.675 567.837 207.03C581.556 176.919 588.683 150.194 589.217 127.21C600.798 132.021 607.925 138.435 610.598 146.453C612.914 155.005 612.201 165.695 608.46 178.523C607.034 183.333 605.431 188.678 603.471 194.558C601.511 200.438 599.373 207.03 596.7 214.157C592.246 225.559 588.327 236.428 585.12 246.761C581.913 257.095 579.24 266.716 577.102 275.803C574.964 290.056 577.28 301.103 583.872 308.942C590.108 317.316 597.235 322.305 605.609 324.265C613.448 326.224 618.972 324.443 622.357 319.276C613.27 318.029 608.816 311.971 608.816 300.746C608.816 294.511 609.35 287.918 610.598 280.97C611.845 274.021 613.448 266.36 615.586 257.986C618.259 249.612 620.753 241.595 623.248 233.577C625.742 225.559 628.415 217.72 631.265 209.881C634.116 201.507 636.432 194.202 638.392 187.966C640.352 181.73 641.777 176.385 642.668 172.109C645.519 154.47 643.024 141.107 635.185 131.843ZM471.27 172.821C467.885 177.632 464.143 182.799 460.045 188.5C455.947 194.202 451.315 200.259 446.326 206.673C436.171 219.502 428.153 228.588 422.452 233.755C422.986 230.37 424.055 226.094 425.837 220.749C427.619 215.404 430.469 208.99 434.567 201.328C441.516 186.184 450.424 172.643 461.649 160.706C464.321 158.034 466.459 156.965 468.419 157.143C469.845 157.321 470.914 158.746 471.626 161.062C472.339 163.022 472.695 165.16 472.695 167.476C472.161 170.505 471.626 172.287 471.27 172.821Z" fill="#FCCC0A"/>
<path d="M768.989 215.047C768.099 213.444 766.851 212.909 764.891 213.088C760.081 213.978 755.27 214.157 750.46 213.444C745.649 212.731 742.086 211.662 739.948 210.237C741.908 201.685 743.511 193.311 744.758 185.293C746.006 177.276 746.184 168.724 744.937 159.993C743.689 150.55 740.126 142.889 733.89 137.188C727.654 131.486 720.884 127.567 713.401 125.429C705.918 123.291 698.791 122.756 692.021 123.825C685.25 124.894 680.796 127.389 678.658 131.13C675.985 135.941 674.916 140.751 675.095 145.918C675.273 151.085 675.985 156.074 676.876 161.062C675.629 162.31 674.382 163.379 672.957 164.269C671.531 165.16 670.284 166.229 669.037 167.476C665.652 170.505 662.266 175.138 658.525 181.195C654.783 187.253 651.755 193.845 649.082 201.15C646.409 208.455 644.628 215.76 643.381 223.421C642.133 231.083 642.49 238.031 644.45 244.445C645.697 249.256 648.548 253.532 653.002 257.63C657.456 261.728 662.623 264.935 668.502 267.607C674.382 270.28 680.083 271.883 685.963 272.774C691.842 273.665 696.653 272.952 700.395 270.814C704.849 268.498 708.947 265.113 712.688 261.015C716.43 256.917 719.637 252.641 722.309 248.187C724.982 243.733 727.298 239.456 729.258 235.359C731.218 231.261 732.643 227.876 733.89 225.559C740.304 227.697 745.827 228.945 750.638 229.123C755.449 229.301 760.437 229.123 765.96 228.41C767.208 228.41 768.099 227.519 768.989 225.916C769.88 224.312 770.237 222.352 770.237 220.392C770.237 218.433 769.702 216.651 768.989 215.047ZM694.871 234.824C690.417 242.129 683.647 248.543 674.382 254.066C672.957 249.79 672.6 244.267 673.313 237.497C674.026 230.726 675.273 223.956 677.054 217.185C678.836 210.415 680.618 204.357 682.578 199.19C684.538 194.024 685.963 190.817 687.21 189.569C691.664 198.3 698.078 205.604 706.452 211.306C703.067 219.68 699.147 227.519 694.871 234.824ZM714.648 179.057C714.113 183.69 713.223 187.609 711.797 190.995C707.699 181.552 705.561 172.643 705.205 164.269C704.849 155.895 706.63 149.481 710.372 144.671C711.263 146.274 712.154 148.947 713.044 152.688C713.935 156.43 714.47 160.528 714.826 165.16C715.182 169.793 715.004 174.425 714.648 179.057Z" fill="#FCCC0A"/>
<path d="M136.313 117.946C136.313 117.946 137.382 116.164 139.52 112.957C141.658 109.928 144.509 105.474 148.251 100.307C151.992 95.14 156.446 89.2604 161.435 83.0245C163.929 79.9957 166.424 76.7887 169.274 73.5816C171.947 70.3746 174.798 67.1676 177.648 63.9605C180.499 60.7535 183.35 57.7246 186.379 54.6958C189.229 51.6669 192.258 48.8162 195.109 46.1437C197.96 43.4712 200.988 40.7986 203.661 38.4824C206.512 36.1663 209.184 34.0282 211.857 32.0684C213.104 31.1776 214.351 30.2867 215.598 29.3959C216.845 28.6832 217.914 27.7924 219.162 27.2579C221.478 26.0107 223.438 24.7635 225.041 24.0508C226.645 23.16 228.07 22.6255 228.961 22.2691C229.852 21.9128 230.386 21.7346 230.386 21.7346C230.386 21.7346 229.852 21.9128 229.139 22.4473C228.248 22.9818 227.001 23.6945 225.397 24.5853C223.794 25.4762 222.012 26.9015 219.874 28.3268C217.914 29.9304 215.598 31.712 213.104 33.6719C210.609 35.6318 208.115 37.9479 205.443 40.4423C202.77 42.9367 200.098 45.6092 197.247 48.2817C194.396 51.1324 191.724 53.9831 188.695 57.012C185.844 60.0408 182.993 63.0697 180.143 66.2767C177.292 69.3056 174.441 72.5126 171.769 75.7197C169.096 78.9267 166.424 81.9555 163.751 84.9844C161.257 88.0133 158.762 90.864 156.446 93.7146C154.13 96.5653 151.992 99.0597 149.854 101.554C141.836 111.353 136.313 117.946 136.313 117.946Z" fill="white"/>
<path d="M92.4837 182.621C92.4837 182.621 91.771 184.402 90.702 187.788C89.4548 190.995 88.0295 195.627 86.0696 201.328C85.1788 204.179 84.1098 207.208 83.2189 210.415C82.1499 213.622 81.2591 217.007 80.19 220.571C79.121 224.134 78.2302 227.697 77.1612 231.439C76.0922 235.18 75.2013 238.922 74.4887 242.842C73.5978 246.583 72.8852 250.503 72.3506 254.244C72.1725 256.204 71.8162 257.986 71.638 259.946C71.4598 261.728 71.2816 263.687 71.1035 265.469C70.9253 267.251 70.9253 269.032 70.9253 270.814C70.9253 271.705 70.9253 272.596 70.9253 273.487C70.9253 274.377 70.9253 275.09 71.1035 275.981C71.1035 277.585 71.2816 279.188 71.638 280.792C71.8162 282.395 72.1725 283.82 72.3506 285.246C72.5288 286.671 73.2415 287.918 73.4197 289.165C73.776 290.413 74.3105 291.482 74.845 292.551C75.914 294.689 76.983 296.47 78.2302 297.718C79.2992 299.143 80.3682 299.856 81.0809 300.568C81.7936 301.103 82.1499 301.459 82.1499 301.459C82.1499 301.459 81.7936 301.103 80.9027 300.746C80.1901 300.212 78.9429 299.499 77.6957 298.252C76.4485 297.005 75.0232 295.401 73.776 293.263C73.2415 292.194 72.5288 291.125 71.9943 289.878C71.8161 289.165 71.4598 288.631 71.2816 287.918C70.9253 287.206 70.7471 286.493 70.569 285.78C69.6781 282.93 68.9654 279.723 68.6091 276.159C68.6091 275.268 68.4309 274.377 68.4309 273.487C68.4309 272.596 68.4309 271.705 68.2528 270.814C68.0746 269.032 68.2528 267.073 68.2528 265.291C68.4309 261.549 68.6091 257.63 69.1436 253.71C69.6781 249.79 70.3908 245.871 71.1035 241.951C74.4887 226.272 79.8337 211.306 84.2879 200.438C86.6041 194.914 88.7421 190.46 90.1675 187.431C91.4147 184.224 92.4837 182.621 92.4837 182.621Z" fill="white"/>
<path d="M41.1713 209.702C41.1713 209.702 39.2115 208.633 36.8953 206.139C36.3608 205.426 35.6481 204.714 35.2918 204.001C35.1136 203.645 34.7573 203.11 34.5791 202.754C34.401 202.219 34.0446 201.863 33.8664 201.328C33.6883 200.794 33.5101 200.259 33.3319 199.725C33.1538 199.19 32.9756 198.656 32.9756 198.121C32.7974 196.874 32.6193 195.805 32.7974 194.558C32.7974 193.311 33.1538 192.242 33.5101 190.995C33.6883 190.46 34.0446 189.926 34.2228 189.391C34.5791 188.857 34.7573 188.322 35.1136 187.966C35.8263 187.075 36.539 186.362 37.2516 185.65C37.9643 184.937 38.677 184.402 39.3897 184.046C39.746 183.868 40.1023 183.512 40.4587 183.333C40.815 183.155 41.1713 182.977 41.5277 182.799C42.0622 182.443 42.7749 182.264 43.1312 182.086C44.0221 181.73 44.5565 181.552 44.5565 181.552C44.5565 181.552 44.2002 181.908 43.4875 182.621C43.1312 182.977 42.7749 183.333 42.2404 183.868C41.7059 184.224 41.3495 184.937 40.815 185.471C40.2805 186.006 39.746 186.719 39.2115 187.431C38.8551 188.144 38.3207 188.857 37.7862 189.747C37.4298 190.638 37.0735 191.351 36.7171 192.242C36.539 193.133 36.1826 194.024 36.1826 194.914C36.0045 195.805 36.1826 196.696 36.1826 197.765C36.3608 198.656 36.3608 199.547 36.7171 200.438C36.8953 200.794 37.0735 201.328 37.0735 201.685C37.2516 202.041 37.4298 202.576 37.608 202.932C37.9643 203.823 38.3207 204.535 38.677 205.248C39.0333 205.961 39.3897 206.673 39.746 207.208C40.1023 207.743 40.2805 208.277 40.6368 208.633C40.9932 209.168 41.1713 209.702 41.1713 209.702Z" fill="white"/>
<path d="M185.131 250.503C185.131 250.503 185.844 247.83 187.269 243.376C188.695 238.922 190.833 232.33 193.327 224.49C195.821 216.651 199.028 207.742 202.236 198.121C203.839 193.311 205.621 188.322 207.402 183.333C209.184 178.345 210.966 173.178 212.926 168.011C214.707 162.844 216.667 157.855 218.449 152.688C220.409 147.7 222.19 142.711 223.972 137.9C227.535 128.279 230.921 119.371 233.95 111.888C236.978 104.227 239.473 97.9907 241.254 93.5364C243.036 89.0822 244.105 86.5879 244.105 86.5879C244.105 86.5879 243.392 89.2604 241.967 93.7146C240.542 98.1688 238.404 104.761 235.909 112.6C233.415 120.44 230.208 129.348 227.001 138.969C225.397 143.78 223.616 148.769 221.834 153.757C220.052 158.746 218.271 163.913 216.311 169.08C214.351 174.247 212.569 179.235 210.788 184.402C208.828 189.391 207.046 194.38 205.264 199.19C201.701 208.811 198.316 217.72 195.287 225.203C192.258 232.864 189.764 239.1 187.982 243.554C186.2 248.008 185.131 250.503 185.131 250.503Z" fill="white"/>
<path d="M239.829 278.475C239.829 278.475 239.651 277.941 239.473 276.872C239.295 275.803 238.938 274.377 238.76 272.418C238.582 270.458 238.404 268.142 238.226 265.291C238.226 262.618 238.048 259.411 238.404 256.026C238.404 252.641 238.938 249.078 239.295 245.158C239.473 243.198 239.829 241.238 240.007 239.278C240.186 237.318 240.542 235.18 240.898 233.221C241.611 229.123 242.324 224.847 243.393 220.392C243.927 218.254 244.462 216.116 244.996 213.8C245.531 211.662 246.243 209.524 246.778 207.386C247.312 205.248 248.025 203.11 248.559 200.972C249.272 198.834 249.985 196.696 250.697 194.558C251.41 192.42 252.123 190.46 252.835 188.322C253.548 186.362 254.261 184.224 255.152 182.264C256.577 178.345 258.002 174.425 259.606 171.04C261.209 167.476 262.635 164.091 263.882 161.062C265.129 158.033 266.554 155.183 267.802 152.688C269.049 150.194 270.118 148.056 271.009 146.274C272.79 142.711 273.859 140.751 273.859 140.751C273.859 140.751 273.147 142.889 271.721 146.453C270.296 150.194 268.158 155.361 266.02 161.597C264.951 164.804 263.704 168.189 262.278 171.752C260.853 175.316 259.784 179.236 258.359 183.155C257.646 185.115 256.933 187.075 256.221 189.213C255.508 191.351 254.974 193.311 254.261 195.449C253.548 197.587 253.014 199.725 252.301 201.685C251.588 203.823 251.054 205.961 250.519 208.099C249.985 210.237 249.272 212.375 248.738 214.513C248.203 216.651 247.669 218.789 247.134 220.927C246.6 223.065 246.065 225.203 245.531 227.341C244.996 229.479 244.64 231.439 244.283 233.577C243.749 235.537 243.571 237.675 243.214 239.635C242.858 241.594 242.502 243.554 242.145 245.514C241.611 249.256 241.076 252.819 240.72 256.204C240.364 259.589 240.186 262.618 239.829 265.291C239.651 267.963 239.651 270.458 239.651 272.239C239.651 274.199 239.651 275.803 239.829 276.694C239.829 277.941 239.829 278.475 239.829 278.475Z" fill="white"/>
<path d="M315.194 58.7937C315.194 58.7937 315.194 57.012 316.263 54.5176C316.798 53.2704 317.511 51.8451 318.58 50.5979C319.114 49.8852 319.649 49.3508 320.361 48.6381C321.074 48.1036 321.787 47.5691 322.677 47.0346C323.568 46.6782 324.281 46.1437 325.35 45.9656C325.884 45.7874 326.241 45.7874 326.775 45.6092C327.31 45.6092 327.666 45.6092 328.201 45.6092C329.092 45.431 329.982 45.6092 330.695 45.7874C331.408 45.9655 332.12 46.1437 332.833 46.5C333.368 46.8564 334.08 47.0345 334.437 47.3909C334.793 47.7472 335.327 47.9254 335.506 48.2817C336.04 48.8162 336.396 48.9944 336.396 48.9944C336.396 48.9944 335.862 48.9944 335.149 48.8162C334.793 48.8162 334.258 48.6381 333.902 48.6381C333.368 48.4599 332.833 48.6381 332.299 48.4599C331.764 48.4599 331.051 48.2817 330.517 48.4599C329.804 48.4599 329.27 48.4599 328.557 48.6381C328.201 48.6381 327.844 48.8162 327.488 48.8162C327.132 48.9944 326.775 48.9944 326.597 49.1726C325.884 49.3507 325.35 49.7071 324.637 50.0634C324.103 50.4197 323.39 50.7761 322.856 51.3106C322.321 51.8451 321.608 52.2014 321.252 52.7359C320.183 53.6268 319.292 54.6958 318.401 55.5866C316.263 57.3683 315.194 58.7937 315.194 58.7937Z" fill="white"/>
<path d="M361.162 222.174C361.162 222.174 363.656 216.829 367.576 208.811C369.536 204.714 371.674 200.081 374.168 195.092C375.237 192.598 376.484 189.926 377.731 187.253C378.978 184.581 380.047 181.908 381.295 179.235C382.542 176.563 383.611 173.89 384.68 171.04C385.749 168.367 386.64 165.695 387.531 163.022C389.312 157.855 390.559 152.867 391.094 148.591C391.628 144.314 391.45 140.573 390.559 138.257C390.203 137.01 389.49 136.297 389.134 135.584C388.6 135.05 388.421 134.693 388.421 134.693C388.421 134.693 388.778 134.872 389.312 135.406C389.847 135.941 390.559 136.653 391.272 137.9C391.985 139.148 392.519 140.573 392.876 142.533C393.232 144.314 393.41 146.452 393.232 148.769C393.054 153.401 392.163 158.568 390.559 164.091C389.847 166.764 388.956 169.614 387.887 172.287C386.818 175.138 385.749 177.81 384.68 180.661C383.433 183.333 382.186 186.184 380.938 188.857C379.691 191.529 378.266 194.023 377.019 196.518C374.346 201.507 371.852 205.961 369.536 209.88C364.725 217.364 361.162 222.174 361.162 222.174Z" fill="white"/>
<path d="M324.815 154.47C324.815 154.47 324.281 153.936 323.034 153.757C322.677 153.757 322.499 153.757 322.143 153.757C321.786 153.757 321.43 153.936 321.074 153.936C320.717 154.114 320.361 154.292 320.005 154.47C319.648 154.826 319.292 155.005 318.936 155.361C318.401 156.074 317.689 156.786 317.154 157.855C316.441 158.746 316.085 159.815 315.372 160.884C314.838 161.953 314.481 163.2 313.769 164.448C313.234 165.695 312.878 166.942 312.343 168.189C311.809 169.436 311.453 170.683 311.096 172.109C310.74 173.356 310.205 174.603 309.849 175.85C309.136 178.345 308.246 180.661 307.533 182.621C306.286 186.54 305.039 189.213 305.039 189.213C305.039 189.213 305.039 186.362 305.573 182.264C305.751 181.195 305.929 180.126 306.108 178.879C306.286 177.632 306.464 176.385 306.82 175.138C306.998 173.891 307.533 172.465 307.889 171.218C308.246 169.971 308.602 168.545 309.136 167.12C309.671 165.873 310.027 164.448 310.74 163.2C311.453 161.953 311.987 160.706 312.7 159.459C313.412 158.212 314.125 157.143 315.016 156.252C315.729 155.183 316.798 154.47 317.689 153.757C318.223 153.401 318.758 153.223 319.114 153.045C319.648 152.867 320.183 152.867 320.539 152.688C321.074 152.688 321.43 152.688 321.965 152.867C322.321 153.045 322.677 153.045 323.034 153.223C323.568 153.579 323.924 153.936 324.281 154.114C324.815 154.292 324.815 154.47 324.815 154.47Z" fill="white"/>
<path d="M296.843 224.134C296.843 224.134 296.665 227.163 296.309 231.439C296.309 232.508 296.13 233.755 296.13 235.002C296.13 236.249 295.952 237.497 295.952 238.922C295.952 240.347 295.774 241.595 295.774 243.02C295.774 244.445 295.774 245.871 295.774 247.296C295.774 248.721 295.952 250.147 295.952 251.572C296.13 252.997 296.309 254.245 296.665 255.492C297.021 256.739 297.378 257.986 297.734 259.055C298.268 260.124 298.803 261.015 299.337 261.728C300.05 262.44 300.763 263.153 301.475 263.509C302.188 264.044 302.901 264.222 303.435 264.578C303.97 264.756 304.504 264.935 304.861 264.935C305.217 265.113 305.395 265.113 305.395 265.113C305.395 265.113 305.217 265.113 304.861 265.113C304.504 265.113 303.97 265.291 303.257 265.113C302.544 265.113 301.832 264.935 300.763 264.578C299.872 264.222 298.803 263.866 297.912 262.975C297.378 262.618 297.021 262.084 296.487 261.728C296.13 261.193 295.596 260.659 295.24 260.124C294.527 258.877 293.814 257.63 293.458 256.204C292.567 253.354 292.211 250.325 292.032 247.296C292.032 245.692 292.032 244.267 292.211 242.842C292.211 241.416 292.567 239.991 292.745 238.566C293.102 235.715 293.636 233.221 294.349 231.083C295.418 226.985 296.843 224.134 296.843 224.134Z" fill="white"/>
<path d="M452.384 140.929C452.384 140.929 447.573 146.096 440.981 154.114C439.378 156.074 437.596 158.39 435.636 160.706C433.854 163.022 431.895 165.517 429.935 168.189C426.193 173.356 422.095 179.057 418.532 184.937C416.75 187.788 414.969 190.817 413.365 193.845C411.762 196.874 410.158 199.725 408.911 202.754C408.198 204.179 407.664 205.604 406.951 207.03C406.238 208.455 405.704 209.881 405.169 211.306C404.635 212.731 404.1 213.978 403.744 215.404C403.21 216.651 402.853 217.898 402.497 219.145C402.14 220.392 401.784 221.64 401.428 222.709C401.072 223.778 400.893 225.025 400.537 225.916C400.003 227.876 399.646 229.835 399.29 231.261C398.755 234.29 398.577 236.071 398.577 236.071C398.577 236.071 398.577 234.29 398.577 231.261C398.755 229.657 398.755 227.876 399.112 225.738C399.29 224.668 399.468 223.599 399.646 222.352C399.824 221.105 400.181 219.858 400.359 218.611C400.893 216.116 401.606 213.266 402.675 210.415C403.031 208.99 403.566 207.564 404.1 205.961C404.635 204.535 405.169 202.932 405.882 201.507C407.129 198.478 408.555 195.271 410.158 192.242C411.762 189.213 413.543 186.184 415.325 183.155C417.285 180.126 419.066 177.276 421.205 174.425C423.164 171.574 425.302 168.902 427.262 166.229C431.36 161.062 435.458 156.608 439.2 152.688C446.683 145.205 452.384 140.929 452.384 140.929Z" fill="white"/>
<path d="M479.466 217.72C479.466 217.72 479.287 220.214 479.109 224.134C479.109 225.025 478.931 226.094 478.931 227.163C478.931 228.232 478.931 229.301 478.931 230.548C478.931 232.864 478.931 235.359 479.287 237.675C479.644 239.991 480 242.485 480.713 244.445C481.069 245.514 481.425 246.405 481.96 247.296C482.494 248.187 483.029 249.078 483.563 249.79C484.098 250.503 484.633 251.216 485.167 251.75C485.702 252.285 486.236 252.641 486.592 253.175C487.483 253.888 488.018 254.244 488.018 254.244C488.018 254.244 487.483 254.066 486.236 253.71C485.701 253.532 484.989 253.176 484.276 252.819C483.92 252.641 483.564 252.463 483.207 252.106C482.851 251.928 482.494 251.572 482.138 251.216C481.425 250.503 480.535 249.79 479.822 248.899C479.109 248.009 478.397 246.94 477.862 245.692C477.328 244.445 476.793 243.376 476.437 241.951C476.08 240.704 475.902 239.278 475.724 238.031C475.546 236.784 475.546 235.359 475.546 234.111C475.546 232.864 475.724 231.617 475.724 230.37C476.08 227.876 476.437 225.738 476.971 223.778C478.04 220.036 479.466 217.72 479.466 217.72Z" fill="white"/>
<path d="M496.392 150.016C496.392 150.016 496.392 148.234 497.282 145.74C497.639 144.493 498.173 143.067 499.064 141.642C499.42 140.929 499.955 140.217 500.311 139.326C500.846 138.613 501.38 137.9 501.915 137.188C502.449 136.475 503.162 135.762 503.875 135.228C504.587 134.693 505.3 134.159 506.191 133.624C507.082 133.268 507.794 132.912 508.685 132.734C509.576 132.555 510.289 132.555 511.18 132.555C511.892 132.555 512.605 132.912 513.139 133.09C513.674 133.268 514.03 133.624 514.387 133.803C514.743 133.981 514.921 134.337 515.099 134.515C515.277 134.693 515.277 134.693 515.277 134.693C515.277 134.693 514.921 134.515 514.03 134.515C513.674 134.515 513.318 134.337 512.783 134.337C512.249 134.337 511.714 134.337 511.18 134.515C510.645 134.693 510.111 134.872 509.576 135.05C509.042 135.228 508.507 135.762 507.973 136.119C506.904 137.01 505.835 138.079 504.766 139.326C503.697 140.573 502.627 141.82 501.737 143.067C500.846 144.315 499.955 145.562 499.064 146.453C497.639 148.591 496.392 150.016 496.392 150.016Z" fill="white"/>
<path d="M580.665 125.963C580.665 125.963 581.022 127.567 581.2 130.239C581.2 131.665 581.378 133.268 581.378 135.228C581.378 137.188 581.378 139.326 581.2 141.82C581.022 144.136 580.843 146.809 580.487 149.481C580.309 150.907 580.131 152.332 579.953 153.757C579.775 155.183 579.418 156.608 579.24 158.033C579.062 159.459 578.705 161.062 578.349 162.488C577.993 163.913 577.636 165.517 577.28 167.12C576.567 170.149 575.677 173.178 574.786 176.385C573.717 179.414 572.826 182.443 571.757 185.471C570.688 188.322 569.441 191.351 568.372 194.023C567.124 196.696 565.877 199.369 564.63 201.863C563.383 204.357 562.136 206.495 561.067 208.633C559.998 210.771 558.929 212.731 557.86 214.335C556.791 215.938 555.9 217.364 555.187 218.611C553.584 220.927 552.693 222.174 552.693 222.174C552.693 222.174 553.406 220.749 554.475 218.254C555.009 217.007 555.722 215.404 556.613 213.8C557.503 212.018 558.216 210.059 559.285 207.921C560.176 205.783 561.245 203.466 562.314 200.972C563.383 198.478 564.274 195.805 565.521 193.133C566.59 190.282 567.659 187.431 568.728 184.581C569.797 181.73 570.688 178.701 571.757 175.672C572.648 172.643 573.539 169.614 574.429 166.586C575.142 163.557 576.033 160.706 576.567 157.855C576.924 156.43 577.28 155.005 577.458 153.579C577.636 152.154 577.993 150.907 578.171 149.481C578.705 146.809 579.062 144.314 579.418 141.998C579.774 139.682 580.131 137.544 580.131 135.584C580.309 133.624 580.487 132.021 580.665 130.596C580.665 129.17 580.844 128.101 580.844 127.388C580.487 126.319 580.665 125.963 580.665 125.963Z" fill="white"/>
<path d="M602.936 318.385C602.936 318.385 601.867 318.207 600.264 317.316C599.373 316.96 598.482 316.425 597.413 315.713C596.344 315 595.097 314.109 593.85 313.04C592.781 311.971 591.355 310.724 590.286 309.299C589.039 307.873 587.97 306.27 587.079 304.488C586.545 303.597 586.188 302.706 585.654 301.637C585.298 300.746 584.763 299.677 584.407 298.787C583.872 296.827 582.981 294.689 582.803 292.551L582.269 289.344C582.091 288.275 582.09 287.206 582.09 286.137C582.09 285.068 581.912 283.999 581.912 283.108C581.912 282.039 582.09 281.148 582.09 280.079C582.269 278.119 582.269 276.159 582.625 274.378C582.981 272.596 583.16 270.992 583.516 269.389C583.694 267.785 584.229 266.538 584.585 265.291C584.941 264.044 585.298 262.975 585.654 262.084C586.188 260.302 586.545 259.411 586.545 259.411C586.545 259.411 586.545 260.48 586.367 262.262C586.188 263.153 586.188 264.222 586.01 265.469C585.832 266.716 585.654 268.142 585.654 269.745C585.654 271.349 585.476 272.952 585.298 274.734C585.119 275.625 585.119 276.516 585.298 277.406C585.298 278.297 585.298 279.188 585.298 280.257C585.298 281.148 585.298 282.217 585.298 283.108C585.476 283.999 585.476 285.068 585.654 285.958C585.832 287.027 585.832 287.918 586.01 288.987L586.545 291.838C586.723 293.798 587.436 295.758 587.97 297.539C588.148 298.43 588.683 299.321 588.861 300.212C589.217 301.103 589.574 301.994 589.93 302.884C590.821 304.488 591.533 306.092 592.602 307.517C593.493 308.942 594.562 310.189 595.453 311.437C596.522 312.506 597.413 313.575 598.304 314.465C599.195 315.356 600.085 316.069 600.798 316.603C601.511 317.138 602.045 317.494 602.58 317.851C602.58 318.207 602.936 318.385 602.936 318.385Z" fill="white"/>
<path d="M736.385 221.818C736.385 221.818 736.741 221.818 737.632 221.996C738.344 221.996 739.413 222.174 740.66 222.352C743.155 222.709 746.54 223.243 749.925 223.599C753.31 224.134 756.696 224.49 759.19 224.312C759.903 224.312 760.437 224.312 760.972 224.134C761.506 224.134 761.863 223.956 762.219 223.778C762.575 223.599 762.753 223.421 762.932 223.243C763.11 223.065 763.11 223.065 763.11 223.065C763.11 223.065 762.932 223.421 762.397 223.956C761.863 224.49 760.794 225.025 759.368 225.203C758.121 225.559 756.517 225.559 754.914 225.559C753.31 225.559 751.529 225.381 749.747 225.203C746.362 224.668 742.977 223.956 740.482 223.065C739.235 222.709 738.166 222.352 737.453 221.996C736.741 221.996 736.385 221.818 736.385 221.818Z" fill="white"/>
<path d="M654.071 244.801C654.071 244.801 653.714 243.911 653.18 242.307C652.645 240.704 652.111 238.387 651.754 235.537C651.576 234.111 651.398 232.508 651.22 230.904C651.042 229.301 651.042 227.519 651.042 225.737C651.22 223.956 651.042 221.996 651.398 220.214C651.576 218.254 651.754 216.295 652.111 214.513C652.289 213.622 652.467 212.553 652.645 211.662C652.823 210.771 653.18 209.702 653.358 208.811C653.714 206.852 654.427 205.248 655.14 203.466C655.674 201.685 656.565 200.081 657.278 198.656C657.634 197.943 657.99 197.23 658.347 196.518C658.703 195.805 659.237 195.271 659.594 194.558C660.306 193.311 661.019 192.242 661.732 191.173C662.445 190.282 663.157 189.391 663.692 188.857C664.761 187.609 665.473 186.897 665.473 186.897C665.473 186.897 665.117 187.788 664.404 189.213C664.048 189.926 663.514 190.816 663.157 191.885C662.623 192.954 662.266 194.202 661.732 195.449C661.376 196.161 661.197 196.696 660.841 197.409C660.663 198.121 660.307 198.834 660.128 199.547C659.594 201.15 659.059 202.576 658.525 204.357C657.99 205.961 657.456 207.742 657.1 209.524C656.921 210.415 656.743 211.306 656.387 212.197L655.852 214.869C655.496 216.651 655.318 218.611 654.961 220.392C654.783 222.174 654.605 223.956 654.427 225.737C654.427 227.519 654.249 229.123 654.071 230.726C654.071 232.33 653.893 233.933 653.893 235.359C653.893 238.209 653.892 240.525 654.071 242.129C654.071 243.732 654.071 244.801 654.071 244.801Z" fill="white"/>
<path d="M681.687 144.671C681.687 144.671 680.974 143.067 680.618 140.395C680.618 139.682 680.618 138.969 680.618 138.257C680.618 137.544 680.796 136.653 680.974 135.941C681.152 135.05 681.508 134.337 681.865 133.446C682.043 133.09 682.399 132.555 682.577 132.199C682.756 131.843 683.112 131.486 683.468 131.13C683.825 130.774 684.181 130.417 684.537 130.061C684.894 129.705 685.428 129.526 685.784 129.348L686.497 128.992L687.21 128.814C687.744 128.636 688.101 128.457 688.457 128.457C689.348 128.279 690.239 128.279 690.951 128.279C691.664 128.279 692.377 128.457 693.089 128.636C693.446 128.636 693.802 128.814 693.98 128.814C694.337 128.992 694.515 128.992 694.693 129.17C695.227 129.348 695.584 129.527 695.94 129.705C696.653 130.061 697.009 130.239 697.009 130.239C697.009 130.239 696.475 130.239 695.762 130.417C695.406 130.417 694.871 130.417 694.515 130.596C693.98 130.596 693.446 130.596 692.911 130.774C692.377 130.952 691.664 130.952 691.13 131.13C690.595 131.308 689.882 131.486 689.348 131.665C688.813 132.021 688.101 132.199 687.566 132.555C687.388 132.734 687.032 132.912 686.854 133.09L686.141 133.803C685.963 133.981 685.606 134.337 685.428 134.515C685.25 134.872 685.072 135.05 684.894 135.406C684.537 136.119 684.181 136.653 684.003 137.188C683.646 137.9 683.468 138.435 683.29 139.148C683.112 139.86 682.934 140.395 682.756 140.929C682.043 143.067 681.687 144.671 681.687 144.671Z" fill="white"/>
<path d="M241.076 32.2465C249.628 32.2465 249.628 18.8839 241.076 18.8839C232.346 18.8839 232.346 32.2465 241.076 32.2465Z" fill="white"/>
<path d="M254.083 29.5741C258.359 29.5741 258.359 22.8037 254.083 22.8037C249.806 22.8037 249.806 29.5741 254.083 29.5741Z" fill="white"/>
<path d="M561.067 107.077C569.619 107.077 569.619 93.7146 561.067 93.7146C552.515 93.7146 552.515 107.077 561.067 107.077Z" fill="white"/>
<path d="M566.412 119.193C570.688 119.193 570.688 112.422 566.412 112.422C562.136 112.601 562.136 119.193 566.412 119.193Z" fill="white"/>
<path d="M416.75 262.084C425.302 262.084 425.302 248.721 416.75 248.721C408.198 248.721 408.198 262.084 416.75 262.084Z" fill="white"/>
<path d="M430.469 249.256C434.745 249.256 434.745 242.485 430.469 242.485C426.193 242.664 426.193 249.256 430.469 249.256Z" fill="white"/>
<path d="M695.406 267.073C699.682 267.073 699.682 260.302 695.406 260.302C691.129 260.48 690.951 267.073 695.406 267.073Z" fill="white"/>
<path d="M704.314 261.549C706.809 261.549 706.987 257.451 704.314 257.451C701.642 257.63 701.642 261.549 704.314 261.549Z" fill="white"/>
<path d="M159.832 114.917C159.832 114.917 163.217 109.394 168.74 101.732C171.591 97.8126 174.798 93.3584 178.539 88.726C180.321 86.4098 182.281 83.9155 184.419 81.5993C186.379 79.2831 188.517 76.7887 190.655 74.2944C192.793 71.9782 194.931 69.4838 197.069 67.1676C199.207 64.8515 201.345 62.5353 203.483 60.5754C205.621 58.4374 207.581 56.4775 209.719 54.5177C211.679 52.736 213.638 50.9543 215.598 49.3508C217.558 47.7473 219.162 46.5001 220.765 45.4311C222.369 44.3621 223.794 43.2931 225.041 42.5804C227.536 41.3332 228.961 40.4424 228.961 40.4424C228.961 40.4424 227.714 41.3332 225.397 43.1149C224.328 43.8276 223.081 45.0748 221.656 46.3219C220.231 47.5691 218.627 49.1726 217.024 50.7762C215.242 52.3797 213.638 54.3395 211.679 56.2994C209.719 58.2592 207.937 60.3972 205.799 62.5353C203.661 64.6733 201.879 66.9895 199.741 69.3057C197.603 71.6219 195.643 74.1162 193.505 76.4324C185.131 86.0535 176.936 95.6746 170.7 102.801C164.108 110.106 159.832 114.917 159.832 114.917Z" fill="#936026"/>
<path d="M137.917 152.688C137.917 152.688 141.124 150.729 146.113 148.412C147.36 147.878 148.785 147.343 150.21 146.631C151.636 146.096 153.239 145.384 154.843 144.849C156.446 144.315 158.228 143.78 160.01 143.246C161.791 142.711 163.573 142.355 165.355 141.82C167.136 141.464 169.096 141.108 170.878 140.929C172.66 140.573 174.441 140.573 176.223 140.395C178.005 140.217 179.786 140.395 181.39 140.395C182.993 140.395 184.597 140.751 186.022 140.929C187.448 141.286 188.695 141.642 189.764 142.177C190.833 142.711 191.724 143.067 192.436 143.602C193.149 143.958 193.505 144.493 193.862 144.849C194.218 145.205 194.396 145.384 194.396 145.384C194.396 145.384 194.218 145.205 193.862 145.027C193.505 144.849 192.971 144.493 192.258 144.315C191.545 143.958 190.655 143.78 189.586 143.602C188.517 143.424 187.269 143.246 186.022 143.246C184.775 143.246 183.172 143.246 181.746 143.246C180.143 143.246 178.539 143.424 176.936 143.602C175.332 143.78 173.55 144.136 171.769 144.315C169.987 144.671 168.205 145.027 166.424 145.384C164.642 145.74 162.86 146.096 161.079 146.631C159.297 146.987 157.693 147.522 155.912 147.878C152.527 148.769 149.498 149.481 146.825 150.194C141.48 151.798 137.917 152.688 137.917 152.688Z" fill="#936026"/>
<path d="M155.199 269.032C155.199 269.032 156.802 262.44 159.653 252.997C161.079 248.187 162.86 242.664 164.642 236.606C165.533 233.577 166.602 230.548 167.671 227.519C168.74 224.49 169.809 221.283 170.878 218.076C171.947 214.869 173.194 211.84 174.263 208.633C175.332 205.604 176.579 202.576 177.648 199.547C179.786 193.667 182.102 188.322 184.062 183.69C186.022 179.057 187.804 175.316 189.051 172.643C189.764 171.396 190.298 170.327 190.654 169.614C190.833 169.258 191.011 169.08 191.189 168.902C191.367 168.724 191.367 168.724 191.367 168.724C191.367 168.724 191.367 168.902 191.189 168.902C191.011 169.08 191.011 169.258 190.833 169.614C190.476 170.327 190.12 171.396 189.764 172.821C188.873 175.672 187.626 179.592 186.022 184.402C184.419 189.213 182.637 194.736 180.677 200.616C179.608 203.645 178.717 206.674 177.648 209.702C176.579 212.731 175.51 215.938 174.441 219.145C173.372 222.352 172.125 225.381 171.056 228.588C169.987 231.617 168.74 234.646 167.671 237.675C165.533 243.554 163.395 249.078 161.613 253.71C157.872 262.797 155.199 269.032 155.199 269.032Z" fill="#936026"/>
<path d="M290.251 150.016C290.251 150.016 292.211 144.315 295.952 135.941C297.734 131.665 300.05 126.854 302.544 121.865C303.792 119.371 305.039 116.698 306.464 114.026C307.889 111.353 309.315 108.681 310.74 106.008C312.165 103.336 313.769 100.663 315.372 98.1689C316.798 95.4964 318.58 93.1802 320.005 90.6858C321.608 88.1915 323.212 86.0534 324.637 83.9154C326.241 81.7774 327.666 79.8176 329.091 78.0359C330.517 76.2542 331.942 74.6507 333.368 73.4035C334.08 72.6908 334.615 72.1563 335.327 71.6218C335.862 71.0873 336.575 70.5528 337.109 70.1964C338.178 69.3056 339.069 68.7711 339.782 68.4148C340.494 68.0584 340.672 67.8802 340.672 67.8802C340.672 67.8802 340.316 68.0584 339.782 68.5929C339.247 68.9493 338.534 69.8401 337.465 70.731C337.109 71.2655 336.575 71.8 336.04 72.3345C335.506 72.869 334.971 73.5816 334.437 74.2943C333.368 75.7197 332.12 77.5014 330.873 79.283C329.626 81.2429 328.379 83.2027 326.953 85.3408C325.528 87.4788 324.281 89.9732 322.677 92.2893C321.252 94.7837 319.827 97.278 318.223 99.7724C316.798 102.267 315.194 104.939 313.769 107.612C312.344 110.284 310.74 112.957 309.315 115.451C307.889 118.124 306.464 120.618 305.039 123.112C302.366 128.101 299.694 132.734 297.556 136.653C293.28 144.849 290.251 150.016 290.251 150.016Z" fill="#936026"/>
<path d="M324.815 253.354C324.815 253.354 326.775 250.503 329.626 246.583C330.339 245.692 331.229 244.623 332.12 243.376C333.011 242.307 333.902 241.06 334.793 239.813C336.753 237.318 338.713 234.824 340.672 232.33C341.741 231.083 342.632 229.835 343.701 228.41C344.592 227.163 345.661 225.916 346.552 224.668C347.443 223.421 348.334 222.352 349.046 221.105C349.759 220.036 350.65 218.967 351.184 217.898C351.897 216.829 352.432 215.938 352.966 215.047C353.322 214.157 353.857 213.444 354.213 212.731C354.748 211.484 355.104 210.593 355.104 210.593C355.104 210.593 355.104 211.484 354.926 212.909C354.926 213.622 354.57 214.513 354.391 215.582C354.213 216.116 354.035 216.651 353.857 217.185C353.679 217.72 353.501 218.254 353.144 218.789C352.966 219.323 352.61 220.036 352.432 220.571C352.075 221.105 351.719 221.818 351.541 222.352C350.828 223.599 350.115 225.025 349.224 226.272C348.334 227.697 347.621 228.944 346.552 230.37C345.661 231.795 344.592 233.042 343.523 234.29C342.454 235.537 341.385 236.784 340.316 238.209C339.247 239.456 338.178 240.704 337.109 241.773C334.971 244.089 333.011 246.049 331.051 247.83C327.488 251.394 324.815 253.354 324.815 253.354Z" fill="#936026"/>
<path d="M494.61 221.818C494.61 221.818 494.61 217.364 495.501 210.949C495.679 209.346 496.035 207.564 496.213 205.783C496.57 204.001 496.926 202.041 497.282 200.081C497.817 198.121 498.173 195.983 498.708 194.023C499.242 191.885 499.955 189.926 500.489 187.788C501.202 185.65 501.915 183.69 502.627 181.552C503.34 179.592 504.231 177.632 504.944 175.672C505.834 173.712 506.725 172.109 507.616 170.327C508.507 168.724 509.398 167.12 510.289 165.695C511.18 164.269 512.07 163.022 512.961 161.953C513.674 160.884 514.565 159.993 515.099 159.281C516.346 157.855 517.237 157.143 517.237 157.143C517.237 157.143 516.703 158.033 515.812 159.815C515.277 160.706 514.743 161.597 514.208 162.844C513.674 164.091 512.961 165.338 512.249 166.764C511.536 168.189 510.823 169.793 510.111 171.574C509.398 173.356 508.685 175.138 507.972 176.919C507.26 178.879 506.547 180.839 505.834 182.799C505.122 184.759 504.409 186.897 503.875 188.857C503.162 190.816 502.627 192.954 501.915 194.914C501.38 196.874 500.668 199.012 500.133 200.794C499.064 204.714 497.995 208.277 497.104 211.484C495.857 217.72 494.61 221.818 494.61 221.818Z" fill="#936026"/>
<path d="M610.42 134.872C610.42 134.872 610.776 134.872 611.31 135.228C611.845 135.584 612.736 135.941 613.627 136.831C614.517 137.722 615.586 138.791 616.477 140.217C617.012 140.929 617.368 141.82 617.724 142.533C617.903 142.889 618.081 143.424 618.259 143.958C618.437 144.493 618.615 144.849 618.615 145.384C619.328 147.343 619.684 149.66 620.041 151.976C620.219 153.223 620.219 154.292 620.219 155.539C620.219 156.786 620.397 158.033 620.219 159.281C620.041 161.775 620.041 164.448 619.506 167.12C619.15 169.793 618.793 172.465 618.081 175.138C617.368 177.81 616.834 180.483 616.121 182.977C615.408 185.471 614.517 187.966 613.805 190.46C613.092 192.955 612.023 195.093 611.132 197.231C610.241 199.369 609.529 201.507 608.638 203.288C605.253 210.593 602.58 215.404 602.58 215.404C602.58 215.404 604.006 210.237 606.678 202.576C607.213 200.616 607.925 198.478 608.638 196.34C609.351 194.202 610.063 191.885 610.776 189.391C611.489 186.897 612.023 184.402 612.736 181.908C613.448 179.414 613.983 176.741 614.517 174.247C615.23 171.752 615.586 169.08 615.943 166.407C616.477 163.913 616.655 161.241 616.834 158.924C617.012 157.677 617.012 156.43 617.012 155.361C617.012 154.114 617.19 153.045 617.012 151.976C616.834 149.838 616.834 147.522 616.299 145.74C616.121 145.205 616.121 144.849 616.121 144.314C615.943 143.78 615.765 143.424 615.765 143.067C615.408 142.176 615.23 141.464 614.874 140.751C614.161 139.326 613.448 138.079 612.736 137.188C612.379 136.831 612.023 136.297 611.667 136.119C611.31 135.762 610.954 135.584 610.776 135.406C610.776 135.05 610.42 134.872 610.42 134.872Z" fill="#936026"/>
<path d="M702.889 144.671C702.889 144.671 701.642 147.7 700.573 152.332C700.038 154.648 699.504 157.321 699.147 160.35C698.791 163.379 698.613 166.407 698.613 169.614C698.613 171.218 698.791 172.822 698.969 174.425C699.147 176.029 699.504 177.454 699.86 179.057C700.216 180.483 700.573 181.908 701.107 183.155C701.642 184.402 702.176 185.65 702.889 186.719C703.602 187.788 704.314 188.679 704.849 189.391C705.561 190.104 706.274 190.817 706.808 191.173C707.343 191.707 707.878 191.886 708.234 192.064C708.59 192.242 708.768 192.42 708.768 192.42C708.768 192.42 708.59 192.242 708.412 192.064C708.234 191.707 707.699 191.351 707.343 190.817C706.987 190.282 706.452 189.569 706.096 188.679C705.74 187.788 705.205 186.897 704.849 185.828C704.492 184.759 704.136 183.512 703.78 182.264C703.423 181.017 703.245 179.592 703.067 178.345C702.889 176.919 702.711 175.494 702.711 174.069C702.532 172.643 702.533 171.04 702.533 169.614C702.533 168.011 702.533 166.586 702.533 164.982C702.533 163.557 702.533 161.953 702.533 160.528C702.533 157.677 702.711 155.005 702.711 152.688C702.889 147.7 702.889 144.671 702.889 144.671Z" fill="#936026"/>
<path d="M679.371 260.658C679.371 260.658 682.043 258.52 685.963 255.135C687.923 253.354 690.061 251.394 692.377 249.256C693.446 248.187 694.693 246.94 695.762 245.692C697.009 244.445 698.078 243.198 699.147 241.951C700.216 240.704 701.285 239.278 702.176 238.031C703.067 236.606 704.136 235.359 704.849 233.933C705.561 232.508 706.452 231.261 706.987 230.014C707.699 228.766 708.234 227.519 708.59 226.272C708.946 225.025 709.303 223.956 709.659 222.887C710.016 221.818 710.194 220.927 710.372 220.214C710.728 218.789 710.906 217.898 710.906 217.898C710.906 217.898 711.085 218.789 711.085 220.392C711.085 221.105 711.085 222.174 711.085 223.243C711.085 223.778 710.906 224.312 710.906 225.025C710.906 225.559 710.728 226.272 710.55 226.985C710.372 228.232 710.016 229.657 709.481 231.261C708.946 232.686 708.412 234.29 707.521 235.715C706.809 237.14 705.918 238.744 704.849 240.169C703.78 241.594 702.711 243.02 701.642 244.445C700.394 245.871 699.325 247.118 698.078 248.365C696.831 249.612 695.584 250.681 694.337 251.75C691.842 253.888 689.17 255.67 687.032 257.095C682.756 259.411 679.371 260.658 679.371 260.658Z" fill="#936026"/>
<path d="M101.392 308.229C101.392 308.229 101.036 307.695 100.679 306.626C100.323 305.557 99.6104 303.953 99.2541 301.994C99.0759 300.924 98.7196 299.855 98.5414 298.608C98.3632 297.361 98.0069 295.936 98.0069 294.51C97.8287 293.085 97.6506 291.482 97.6506 289.878C97.6506 288.275 97.6506 286.493 97.4724 284.711C97.4724 282.93 97.4724 280.97 97.6506 279.01C97.8287 277.05 97.8287 274.912 98.1851 272.952C98.7196 268.854 99.2541 264.4 100.323 259.946C100.858 257.63 101.214 255.492 101.748 253.175C102.283 250.859 102.996 248.543 103.708 246.227C104.955 241.594 106.559 236.962 108.163 232.508L109.41 229.123L110.835 225.737C111.726 223.421 112.617 221.283 113.508 219.145C115.289 214.691 117.427 210.593 119.387 206.495C121.347 202.397 123.307 198.478 125.267 194.914C127.227 191.351 129.186 187.788 130.968 184.759C132.75 181.552 134.531 178.879 136.135 176.385C137.738 173.89 139.164 171.752 140.233 169.971C142.549 166.407 143.796 164.448 143.796 164.448C143.796 164.448 142.727 166.586 140.767 170.327C139.698 172.109 138.629 174.425 137.204 177.097C136.491 178.345 135.779 179.77 135.066 181.195C134.353 182.621 133.462 184.224 132.75 185.828C131.146 189.035 129.365 192.598 127.583 196.34C125.623 200.081 124.019 204.001 122.06 208.099C120.278 212.197 118.14 216.473 116.536 220.749C115.646 222.887 114.755 225.203 113.864 227.341L112.617 230.726L111.37 234.111C109.766 238.566 107.984 243.02 106.915 247.652C106.203 249.968 105.668 252.106 104.955 254.423C104.243 256.561 103.886 258.877 103.352 261.015C102.283 265.291 101.57 269.567 100.858 273.665C100.501 275.625 100.323 277.763 100.145 279.544C99.9668 281.504 99.6104 283.286 99.6104 285.068C99.6104 286.849 99.4322 288.631 99.4322 290.234C99.4322 291.838 99.4322 293.441 99.4322 294.867C99.4322 296.292 99.6104 297.717 99.7886 298.965C99.7886 300.212 99.9668 301.459 100.145 302.35C100.501 304.488 100.858 306.091 101.036 307.16C101.214 307.695 101.392 308.229 101.392 308.229Z" fill="#447ABE"/>
<path d="M173.194 115.986C173.194 115.986 175.867 111.71 180.499 105.474C182.815 102.445 185.488 98.8816 188.517 95.14C191.545 91.3985 194.752 87.6569 198.138 83.7372C199.919 81.9555 201.523 79.9957 203.305 78.214C205.086 76.4323 206.868 74.6506 208.471 72.8689C211.857 69.4837 215.242 66.4549 218.093 64.1387C219.518 62.8915 220.943 61.8225 222.19 60.9317C223.438 60.0408 224.685 59.3281 225.576 58.6155C227.535 57.5465 228.783 57.012 228.783 57.012C228.783 57.012 227.714 57.7246 226.11 59.15C225.219 59.8627 224.328 60.7535 223.259 61.8225C222.19 62.8915 220.943 64.1387 219.696 65.5641C218.449 66.9894 217.024 68.4147 215.598 70.0183C214.173 71.6218 212.569 73.2253 210.966 75.007C207.759 78.5703 204.374 82.3119 200.988 86.0534C197.603 89.795 194.218 93.5365 191.011 97.0998C187.804 100.663 184.775 103.87 182.281 106.721C176.936 112.422 173.194 115.986 173.194 115.986Z" fill="#447ABE"/>
<path d="M32.6191 215.582C32.6191 215.582 31.7283 215.047 30.4811 213.978C29.2339 212.909 27.4522 211.128 25.6705 208.811C24.7797 207.564 23.8888 206.317 23.1762 204.714C22.4635 203.11 21.7508 201.507 21.3945 199.547C21.0382 197.587 20.86 195.627 21.0382 193.667C21.2163 191.707 21.7508 189.569 22.4635 187.609L23.1762 186.184C23.3543 185.65 23.7107 185.293 23.8889 184.759C24.4234 183.868 24.9579 182.977 25.4924 182.264C26.7395 180.661 27.9867 179.236 29.4121 177.988C30.8374 176.741 32.2628 175.672 33.6881 174.781C35.1135 173.712 36.3607 173 37.786 172.287C39.0332 171.574 40.2804 171.04 41.3494 170.505C42.4184 169.971 43.3092 169.614 44.2001 169.436C45.8036 168.902 46.6944 168.545 46.6944 168.545C46.6944 168.545 45.9817 169.08 44.5564 169.971C43.8437 170.505 42.9529 171.04 42.062 171.752C41.1712 172.465 40.1022 173.178 38.855 174.069C37.786 174.959 36.5388 175.85 35.2916 176.919C34.7571 177.454 34.0445 177.988 33.5099 178.523C32.9754 179.057 32.2628 179.592 31.7283 180.305C30.4811 181.552 29.4121 182.977 28.3431 184.402C27.8086 185.115 27.2741 185.828 26.9177 186.719L26.2051 187.966L25.6705 189.213C24.9579 190.816 24.4234 192.42 24.2452 194.202C24.067 195.983 24.067 197.587 24.2452 199.19C24.6015 202.576 25.8487 205.426 27.0959 207.921C28.3431 210.415 29.5903 212.375 30.6593 213.8C32.0846 214.869 32.6191 215.582 32.6191 215.582Z" fill="#447ABE"/>
<path d="M336.04 275.09C337.287 274.199 338.534 273.308 339.782 272.239C341.029 271.17 342.098 270.101 343.167 269.032C344.236 267.963 345.305 266.894 346.374 265.647C347.443 264.578 348.512 263.331 349.581 262.084C350.65 260.837 351.541 259.768 352.61 258.52C353.679 257.273 354.57 256.026 355.639 254.957C357.598 252.463 359.558 249.968 361.34 247.474C363.122 244.98 365.081 242.485 366.863 239.991C368.645 237.497 370.427 234.824 372.208 232.33L374.881 228.41C375.772 227.163 376.662 225.916 377.553 224.49L382.72 216.651L385.749 218.433C385.036 219.858 384.324 221.461 383.611 223.065C382.898 224.668 382.364 226.272 381.829 227.876C381.295 229.479 380.76 231.083 380.404 232.864C380.048 234.468 379.691 236.249 379.335 237.853L378.979 240.347L378.8 242.842V245.336L378.979 247.83L379.335 250.325L379.869 252.819L380.582 255.135L381.473 257.451C381.829 258.164 382.364 258.877 382.72 259.589C383.077 260.302 383.611 261.015 384.146 261.549C385.215 262.797 386.284 264.044 387.709 265.113L388.6 266.004L389.669 266.716C390.381 267.251 391.094 267.785 391.807 268.142L394.123 269.389C394.836 269.745 395.726 270.101 396.439 270.458C398.043 271.17 399.646 271.705 401.25 272.239C402.853 272.774 404.635 273.13 406.238 273.487C408.02 273.843 409.624 274.021 411.405 274.377L416.572 275.09H411.227C409.445 274.912 407.664 274.734 405.882 274.556C404.1 274.199 402.319 274.021 400.715 273.665C398.933 273.13 397.152 272.952 395.548 272.239C394.657 271.883 393.767 271.705 393.054 271.349L390.56 270.28C389.669 269.923 388.956 269.389 388.243 268.854L386.996 268.142L385.927 267.251C384.502 266.182 383.077 264.935 381.829 263.509C381.295 262.797 380.582 262.084 380.048 261.371C379.513 260.658 378.979 259.768 378.622 259.055L377.375 256.561L376.484 253.888L375.772 251.216L375.415 248.543L375.237 245.87V243.198L375.415 240.525L375.772 237.853C376.128 236.071 376.306 234.29 376.841 232.508C377.197 230.726 377.731 228.944 378.266 227.341C378.8 225.559 379.335 223.956 380.048 222.352C380.76 220.749 381.473 219.145 382.364 217.364L385.393 219.145L380.048 226.985C378.266 229.657 376.484 232.152 374.703 234.646C372.921 237.14 370.961 239.635 369.001 242.307C368.11 243.554 367.041 244.801 366.15 246.049C365.081 247.296 364.191 248.543 363.122 249.79L360.093 253.354C359.024 254.601 357.955 255.67 356.886 256.917C355.817 258.164 354.748 259.233 353.679 260.48C352.61 261.549 351.541 262.796 350.294 263.866C349.225 264.935 347.977 266.004 346.908 267.073C345.661 268.142 344.592 269.211 343.345 270.28C342.098 271.349 340.851 272.239 339.603 273.13C338.713 273.487 337.465 274.377 336.04 275.09Z" fill="#447ABE"/>
<path d="M343.345 207.386C343.345 207.386 346.017 201.863 349.581 193.311C350.472 191.173 351.363 188.857 352.432 186.54C353.322 184.046 354.391 181.552 355.282 178.879C356.173 176.207 357.064 173.356 358.133 170.505C359.024 167.655 359.915 164.804 360.449 161.775C361.162 158.924 361.874 155.896 362.231 153.045C362.409 151.619 362.587 150.194 362.765 148.769C362.943 147.343 363.122 145.918 363.122 144.493C363.3 141.642 363.3 138.969 363.122 136.475C363.122 135.762 362.943 135.228 362.943 134.515C362.765 133.981 362.765 133.268 362.587 132.734C362.409 132.199 362.409 131.486 362.231 130.952C362.053 130.417 361.874 129.883 361.874 129.348C361.696 128.814 361.518 128.279 361.518 127.745C361.34 127.21 361.162 126.676 360.984 126.32C360.627 125.429 360.271 124.36 359.915 123.647C359.558 122.756 359.202 122.043 358.846 121.331C358.489 120.618 357.955 120.084 357.777 119.549C357.064 118.48 356.351 117.589 355.995 117.055C355.639 116.52 355.282 116.164 355.282 116.164C355.282 116.164 355.639 116.342 356.173 116.877C356.708 117.411 357.598 117.946 358.489 119.015C358.846 119.549 359.38 120.084 359.915 120.796C360.449 121.331 360.805 122.222 361.34 122.934C361.874 123.647 362.409 124.716 362.765 125.607C362.943 126.141 363.3 126.676 363.478 127.032C363.656 127.567 363.834 128.101 364.013 128.636C364.191 129.17 364.369 129.705 364.547 130.417C364.725 130.952 364.903 131.665 365.081 132.199C365.26 132.734 365.438 133.446 365.616 134.159C365.794 134.872 365.794 135.406 365.972 136.119C366.507 138.791 366.507 141.642 366.507 144.671C366.507 146.096 366.329 147.7 366.329 149.125C366.151 150.55 365.972 152.154 365.794 153.757C365.26 156.786 364.725 159.815 364.013 162.844C363.3 165.873 362.409 168.902 361.518 171.753C360.627 174.603 359.558 177.454 358.489 180.126C356.351 185.471 353.857 190.282 351.719 194.38C347.086 202.397 343.345 207.386 343.345 207.386Z" fill="#447ABE"/>
<path d="M225.576 236.071C225.576 236.071 225.932 233.221 226.823 228.054C227.714 223.065 228.961 215.76 230.921 207.208C232.702 198.656 235.197 188.679 238.047 177.988C239.473 172.643 241.076 167.298 242.858 161.775C244.64 156.252 246.421 150.729 248.203 145.205C250.163 139.682 252.123 134.159 254.261 128.814C256.399 123.469 258.537 118.124 260.853 113.135C261.922 110.641 263.169 108.146 264.238 105.83C265.307 103.514 266.554 101.198 267.802 98.8816C268.871 96.5654 270.118 94.4274 271.365 92.4676C272.434 90.3295 273.681 88.3697 274.928 86.588C275.997 84.6281 277.245 82.8464 278.314 81.2429C279.383 79.6394 280.452 78.0359 281.521 76.6106C282.59 75.1852 283.659 73.7599 284.549 72.5127C285.618 71.2655 286.509 70.1965 287.222 69.3056C288.825 67.3458 290.251 65.9204 291.142 64.8514C292.032 63.7824 292.567 63.2479 292.567 63.2479C292.567 63.2479 292.032 63.7824 291.32 64.8514C290.429 65.9204 289.182 67.524 287.756 69.662C287.044 70.731 286.153 71.8 285.262 73.0472C284.371 74.2944 283.48 75.7197 282.59 77.3232C281.521 78.7486 280.63 80.5302 279.739 82.1338C279.204 83.0246 278.67 83.9154 278.135 84.8063C277.601 85.6971 277.066 86.588 276.532 87.657C275.463 89.6168 274.394 91.5767 273.325 93.7147C272.256 95.8527 271.187 97.9908 270.118 100.307C269.049 102.623 267.98 104.939 266.911 107.256C265.842 109.572 264.773 112.066 263.704 114.56C261.566 119.549 259.606 124.894 257.468 130.239C255.33 135.584 253.37 141.108 251.588 146.631C249.628 152.154 247.847 157.677 246.065 163.2C244.283 168.724 242.68 174.069 241.076 179.236C237.869 189.747 235.197 199.547 232.881 208.099C230.564 216.473 228.605 223.6 227.536 228.588C226.288 233.221 225.576 236.071 225.576 236.071Z" fill="#447ABE"/>
<path d="M433.676 214.691C433.676 214.691 433.676 213.622 434.033 212.019C434.389 210.237 435.102 207.921 436.171 205.07C436.705 203.645 437.418 202.219 438.13 200.616C438.843 199.012 439.734 197.409 440.625 195.805C441.516 194.202 442.407 192.598 443.476 190.817C444.545 189.213 445.614 187.431 446.683 185.828C447.752 184.224 448.999 182.621 450.068 181.017C451.137 179.414 452.384 177.988 453.453 176.385C454.522 174.96 455.769 173.534 456.838 172.287C457.907 171.04 458.976 169.793 459.867 168.724C461.827 166.586 463.609 164.804 464.856 163.557C466.103 162.31 466.816 161.597 466.816 161.597C466.816 161.597 464.856 164.982 461.649 169.971C460.045 172.465 458.085 175.316 456.126 178.345C454.166 181.374 451.849 184.581 449.711 187.788C448.642 189.391 447.573 190.995 446.504 192.598C445.435 194.202 444.366 195.805 443.476 197.231C442.585 198.834 441.516 200.259 440.625 201.685C439.734 203.11 438.843 204.535 438.13 205.783C437.418 207.03 436.705 208.277 436.171 209.346C435.636 210.415 435.102 211.306 434.745 212.019C434.389 212.731 434.211 213.444 434.033 213.8C433.676 214.335 433.676 214.691 433.676 214.691Z" fill="#447ABE"/>
<path d="M581.378 192.598C582.269 190.282 583.16 187.966 584.05 185.65C584.941 183.333 585.832 181.017 586.545 178.523C587.257 176.207 588.148 173.712 588.683 171.396C589.395 169.08 589.93 166.586 590.643 164.091C591.712 159.281 592.602 154.292 592.781 149.481C592.781 148.234 592.781 146.987 592.781 145.918C592.781 144.671 592.603 143.602 592.424 142.355C592.246 141.107 592.068 140.038 591.712 138.791L591.177 137.188L590.464 135.584L589.217 132.377L592.424 133.09C594.384 133.624 595.81 134.337 597.235 135.228C597.948 135.762 598.66 136.297 599.195 136.831L600.976 138.613C602.045 139.86 603.114 141.286 603.827 142.711C604.183 143.424 604.718 144.136 604.896 145.027L605.609 147.343C606.143 148.947 606.322 150.55 606.678 152.154C607.034 153.757 607.034 155.361 607.034 156.964C607.034 157.677 607.034 158.568 607.034 159.281L606.856 161.597C606.678 163.2 606.678 164.804 606.322 166.229L605.431 170.862C605.252 171.574 605.074 172.465 604.896 173.178L604.183 175.494L602.936 179.948C602.58 181.373 601.867 182.799 601.333 184.402L599.729 188.678L598.838 190.816L597.769 192.954C596.522 195.805 595.097 198.478 593.85 201.328C594.741 198.478 595.81 195.449 596.879 192.598L597.591 190.46L598.304 188.322L599.551 183.868C599.907 182.443 600.442 181.017 600.798 179.414L601.867 174.959L602.402 172.821C602.58 172.109 602.58 171.396 602.758 170.505L603.471 166.051C603.649 164.626 603.649 163.022 603.827 161.597L604.005 159.281C604.005 158.568 603.827 157.855 603.827 157.143C603.649 155.717 603.827 154.114 603.293 152.688C602.936 151.263 602.936 149.838 602.224 148.412L601.511 146.452C601.333 145.74 600.798 145.205 600.62 144.493C600.086 143.245 599.017 142.176 598.304 140.929L596.879 139.504C596.344 139.148 595.81 138.613 595.275 138.257C594.741 137.9 594.028 137.544 593.493 137.188C592.959 136.831 592.246 136.653 591.712 136.475L593.671 133.981L594.384 135.941L594.919 137.9C595.275 139.148 595.453 140.573 595.631 141.82C595.81 143.067 595.81 144.493 595.81 145.74C595.81 146.987 595.81 148.412 595.631 149.66C595.275 154.826 594.206 159.815 592.781 164.804C591.355 169.614 589.574 174.425 587.614 179.057C586.01 183.69 583.872 188.322 581.378 192.598Z" fill="#447ABE"/>
<path d="M488.018 273.13C488.018 273.13 489.265 274.021 491.581 275.446C493.897 276.694 497.461 278.297 501.737 279.188C503.875 279.544 506.369 279.722 508.863 279.722C511.358 279.722 514.03 279.188 516.703 278.475C519.375 277.763 521.87 276.515 524.542 275.268C525.789 274.556 527.036 273.843 528.284 272.952L530.065 271.705L531.847 270.28C533.094 269.389 534.163 268.32 535.232 267.429C536.301 266.538 537.37 265.291 538.439 264.222C539.508 263.153 540.399 262.084 541.468 261.015C542.359 259.946 543.428 258.877 544.319 257.808C545.21 256.739 546.1 255.67 546.813 254.601C547.704 253.532 548.417 252.463 549.129 251.394C550.733 249.256 551.98 247.118 553.227 245.336C554.474 243.376 555.543 241.594 556.612 239.991C557.681 238.387 558.394 236.962 559.107 235.893C560.532 233.577 561.245 232.33 561.245 232.33C561.245 232.33 560.71 233.755 559.641 236.249C559.107 237.497 558.572 239.1 557.681 240.704C556.791 242.307 555.9 244.267 554.831 246.405C553.762 248.365 552.515 250.681 551.089 252.819C550.377 253.888 549.664 255.135 548.951 256.204C548.239 257.451 547.348 258.52 546.457 259.768C545.566 261.015 544.675 262.084 543.784 263.331C542.893 264.578 541.824 265.647 540.755 266.716C539.686 267.785 538.617 269.032 537.548 270.101C536.479 271.17 535.232 272.239 533.985 273.308L532.203 274.734L530.244 275.981C528.996 276.872 527.571 277.584 526.146 278.475C523.295 279.901 520.444 281.148 517.594 281.682C514.743 282.395 511.714 282.751 509.041 282.573C506.369 282.395 503.696 282.039 501.38 281.326C496.748 279.901 493.541 277.763 491.225 276.159C488.908 274.377 488.018 273.13 488.018 273.13Z" fill="#447ABE"/>
<path d="M288.113 301.459C288.113 301.459 287.756 301.459 287.044 301.459C286.331 301.459 285.44 301.281 284.193 300.746C283.48 300.568 282.946 300.212 282.233 299.855C281.877 299.677 281.52 299.499 281.164 299.321C280.808 299.143 280.451 298.786 280.095 298.43C279.739 298.074 279.382 297.896 279.026 297.539C278.67 297.183 278.313 296.827 277.957 296.47C277.244 295.758 276.532 294.867 275.997 293.976C275.463 293.085 274.75 292.016 274.216 290.947C273.681 289.878 273.325 288.631 272.79 287.562C272.256 286.315 272.078 285.067 271.721 283.82C271.365 282.573 271.008 281.148 270.83 279.901C270.474 277.228 269.939 274.377 270.118 271.349C270.118 269.923 270.118 268.498 270.118 267.072C270.118 265.647 270.296 264.222 270.296 262.796C270.474 261.371 270.652 259.946 270.652 258.52C270.652 257.808 270.83 257.095 270.83 256.382L271.187 254.244C271.721 251.394 272.256 248.721 272.612 246.049C273.147 243.376 273.859 240.882 274.572 238.387C275.285 236.071 275.819 233.755 276.354 231.617C279.026 223.421 281.164 218.076 281.164 218.076C281.164 218.076 280.273 223.778 278.313 232.151C277.957 234.289 277.601 236.606 277.066 238.922C276.71 241.416 276.175 243.911 275.641 246.583C275.285 249.256 274.928 251.928 274.572 254.779L274.216 256.917C274.216 257.63 274.037 258.342 274.037 259.055C273.859 260.48 273.859 261.906 273.681 263.331C273.503 264.756 273.325 266.182 273.325 267.607C273.325 269.032 273.325 270.458 273.325 271.705C273.147 274.556 273.503 277.228 273.681 279.722C273.681 280.97 274.037 282.217 274.216 283.464C274.394 284.711 274.572 285.958 274.928 287.027C275.285 288.096 275.641 289.344 275.997 290.234C276.354 291.303 276.888 292.194 277.423 293.085C277.779 294.154 278.492 294.867 279.026 295.579C279.382 295.936 279.561 296.292 279.917 296.648C280.273 297.005 280.451 297.183 280.808 297.539C281.164 297.896 281.342 298.074 281.699 298.43C282.055 298.608 282.233 298.965 282.589 299.143C283.124 299.677 283.658 300.034 284.371 300.212C285.44 300.746 286.331 301.103 287.044 301.281C287.756 301.459 288.113 301.459 288.113 301.459Z" fill="#447ABE"/>
<path d="M617.012 291.66C617.012 286.493 617.368 281.148 618.081 275.981C618.437 273.308 618.793 270.814 619.328 268.141C619.506 266.894 619.862 265.647 620.041 264.222C620.397 262.975 620.575 261.727 620.931 260.302C621.466 257.808 622.357 255.135 623.069 252.641C623.426 251.394 623.96 250.147 624.317 248.899C624.673 247.652 625.207 246.405 625.742 245.158L627.167 241.416C627.702 240.169 628.236 238.922 628.771 237.853C629.305 236.606 630.018 235.537 630.552 234.289L632.512 230.726L635.898 224.49L635.719 231.795C635.719 233.22 635.719 234.824 635.898 236.249C636.076 237.853 636.254 239.278 636.61 240.882C636.967 242.307 637.323 243.911 637.857 245.336C638.392 246.761 638.926 248.187 639.461 249.612C639.995 251.037 640.708 252.463 641.599 253.71C642.312 254.957 643.202 256.382 644.093 257.63C644.45 258.342 644.984 258.877 645.519 259.411C646.053 259.946 646.409 260.658 647.122 261.193C648.191 262.262 649.26 263.331 650.507 264.4C651.755 265.291 652.824 266.36 654.249 267.251C655.496 268.141 656.921 268.854 658.169 269.745C659.594 270.458 660.841 271.349 662.266 271.883C662.979 272.239 663.692 272.596 664.404 272.774L666.543 273.665C667.968 274.199 669.571 274.734 670.997 275.268C672.422 275.803 674.026 276.159 675.629 276.515L680.262 277.406L685.072 278.297L680.262 278.119L675.451 277.584C673.847 277.228 672.244 277.05 670.64 276.694C669.037 276.337 667.433 275.981 666.008 275.446L663.692 274.734C662.979 274.556 662.088 274.199 661.376 273.843C659.772 273.308 658.347 272.596 656.921 271.883C655.496 271.17 654.071 270.458 652.645 269.389C651.22 268.498 649.973 267.607 648.548 266.538C647.3 265.469 646.053 264.4 644.806 263.153C644.271 262.618 643.737 261.906 643.024 261.371C642.49 260.837 641.955 260.124 641.421 259.411C640.352 258.164 639.461 256.739 638.57 255.313C637.679 253.888 636.967 252.463 636.254 250.859C635.541 249.434 635.007 247.83 634.472 246.227C633.938 244.623 633.581 243.02 633.225 241.416C632.869 239.813 632.691 238.209 632.512 236.428C632.334 234.824 632.334 233.221 632.334 231.261L635.541 232.33L633.581 235.715C632.869 236.784 632.334 238.031 631.8 239.1L630.018 242.485L628.414 246.049C627.88 247.296 627.345 248.365 626.989 249.612C626.455 250.859 626.098 251.928 625.564 253.175C624.673 255.67 623.782 257.986 623.069 260.48C622.713 261.727 622.357 262.975 622 264.222C621.644 265.469 621.288 266.716 620.931 267.963C620.219 270.458 619.684 272.952 619.15 275.625C618.615 278.119 618.081 280.791 617.724 283.286C617.724 286.493 617.19 288.987 617.012 291.66Z" fill="#447ABE"/>
<path d="M729.97 125.963C729.97 125.963 731.217 126.319 733.355 127.567C734.424 128.101 735.672 128.814 736.919 129.883C737.632 130.417 738.344 130.952 739.057 131.486C739.77 132.021 740.482 132.734 741.195 133.446C741.908 134.159 742.62 134.872 743.333 135.762C744.046 136.653 744.936 137.366 745.471 138.435C746.184 139.326 746.896 140.395 747.609 141.286C748.322 142.355 748.856 143.424 749.391 144.493C749.747 145.027 750.103 145.562 750.281 146.274C750.46 146.809 750.816 147.522 750.994 148.056C751.529 149.303 752.063 150.55 752.42 151.798C752.776 153.045 753.132 154.47 753.488 155.717L754.023 157.677C754.201 158.39 754.201 159.102 754.379 159.637C754.736 162.309 755.092 164.982 754.914 167.833C754.914 170.505 754.914 173.178 754.558 175.672C754.201 178.166 754.023 180.661 753.488 182.799C752.954 185.115 752.42 187.075 751.885 189.035C751.529 189.926 751.351 190.995 750.994 191.707C750.638 192.598 750.282 193.311 750.103 194.202C749.569 195.627 749.034 197.052 748.5 198.121C747.609 200.259 747.074 201.507 747.074 201.507C747.074 201.507 747.431 200.259 747.787 197.943C747.965 196.874 748.322 195.449 748.678 193.845C749.034 192.242 749.569 190.46 749.747 188.5C750.103 186.54 750.46 184.402 750.816 182.264C750.994 181.195 750.994 179.948 751.172 178.879C751.35 177.632 751.35 176.563 751.529 175.316C751.885 172.821 751.529 170.327 751.707 167.833C751.885 165.338 751.351 162.666 750.994 160.171C750.994 159.459 750.816 158.924 750.816 158.212L750.281 156.43C749.925 155.183 749.747 153.936 749.391 152.688C749.034 151.441 748.5 150.372 748.143 149.125C747.965 148.591 747.787 147.878 747.609 147.343C747.431 146.809 747.074 146.274 746.896 145.74C746.362 144.671 745.827 143.602 745.293 142.533C744.758 141.464 744.046 140.573 743.511 139.682C742.977 138.791 742.264 137.9 741.729 137.01C741.017 136.119 740.482 135.406 739.769 134.693C739.057 133.981 738.522 133.268 737.81 132.555C737.275 131.843 736.562 131.308 736.028 130.774C734.959 129.705 733.712 128.814 732.821 128.101C731.93 127.389 731.217 126.854 730.683 126.498C730.327 126.141 729.97 125.963 729.97 125.963Z" fill="#447ABE"/>
<path d="M524.542 128.101C524.542 128.101 525.789 128.458 527.749 129.348C528.818 129.883 529.887 130.417 531.134 131.308C532.382 132.199 533.807 133.268 535.054 134.872C535.41 135.228 535.589 135.584 535.945 136.119C536.301 136.475 536.479 137.01 536.836 137.366C537.37 138.257 537.727 139.326 538.261 140.395C538.617 141.464 538.796 142.711 538.974 143.78C538.974 145.027 538.974 146.274 538.796 147.522C538.617 148.769 538.439 150.016 538.083 151.263C537.727 152.51 537.37 153.757 536.658 154.826C536.123 155.895 535.41 157.143 534.876 158.212L533.094 161.419C531.847 163.557 530.6 165.517 529.531 167.655C528.462 169.793 527.215 171.752 526.146 173.712C525.077 175.672 524.008 177.632 523.117 179.592C522.226 181.374 521.335 183.155 520.444 184.937C517.237 191.529 515.277 195.983 515.277 195.983C515.277 195.983 515.99 191.173 518.484 184.224C519.019 182.443 519.732 180.661 520.622 178.701C521.335 176.741 522.226 174.603 523.295 172.643C524.364 170.505 525.255 168.367 526.502 166.229C527.571 164.091 528.818 161.953 530.065 159.815L532.025 156.608C532.56 155.539 533.094 154.648 533.629 153.579C534.163 152.51 534.52 151.441 534.876 150.55C535.232 149.481 535.41 148.412 535.767 147.522C535.945 146.453 535.945 145.384 536.123 144.493C535.945 143.602 535.945 142.533 535.767 141.642C535.589 140.751 535.232 139.86 534.876 138.969C534.698 138.613 534.52 138.079 534.341 137.722C534.163 137.366 533.807 137.01 533.629 136.653C532.738 135.228 531.491 133.981 530.6 132.912C529.531 132.021 528.462 131.13 527.749 130.596C525.611 128.636 524.542 128.101 524.542 128.101Z" fill="#447ABE"/>
</g>
<defs>
<clipPath id="clip0_274_3">
<rect width="795" height="439" fill="white"/>
</clipPath>
</defs>
</svg>
