<?xml version="1.0" encoding="utf-8"?>
<!-- Generator: Adobe Illustrator 19.0.0, SVG Export Plug-In . SVG Version: 6.00 Build 0)  -->
<svg version="1.1" id="Capa_1" xmlns="http://www.w3.org/2000/svg" xmlns:xlink="http://www.w3.org/1999/xlink" x="0px" y="0px"
	 viewBox="0 0 841.9 595.3" style="enable-background:new 0 0 841.9 595.3;" xml:space="preserve">
<style type="text/css">
	.st0{fill:#EE2D69;stroke:#000000;stroke-miterlimit:10;}
	.st1{fill:#FFFFFF;}
	.st2{fill:#9CDAE9;}
</style>
<path id="XMLID_1_" d="M585,253.3l0.7-2.1l-0.2-2.2c-1.6-16.9-14.9-40.2-27.5-42.2c-1-0.2-2.2-0.2-3.9-0.2c-3.7,0-9.9,0.4-17.7,0.8
	c-12.2,0.7-27.4,1.6-40.7,1.6c-13.9,0-19.8-1.1-22-1.7c-1.8-3.7-5.1-8.7-11.4-8.7c-3.7,0-10.3,2.5-11,11.7c-0.1,0.9-0.1,2.1-0.1,3.3
	c-6.2-10.4-18.5-21-30.3-21c-5.6,0-10.7,2.3-14.3,6.6l-0.1,0.2l-0.1,0.2c-1.1,1.4-3.3,4.2-3.8,7.8c-0.3-0.5-0.6-0.9-0.9-1.3
	l-0.5-0.7l-0.6-0.6c-4.7-4.7-11.9-7.6-19.1-7.6c-6.7,0-16.7,2.4-27.4,13.3c-41.3,5.5-108.5,27.2-122.3,48.1
	c-6.6,10.1-4.4,23.3-1.3,32.5c2.1,6.3,7.2,18.1,13.3,22.3l0.3,0.2l0.3,0.2c3.6,2.2,7.2,3.3,10.8,3.3c9.1,0,15-6.9,16.6-13.3l0.1-0.4
	l0.1-0.4c0.8-4.8-0.9-8-2.2-9.7c4-3.7,11.3-9.3,24.6-17c9-5.2,19.2-10.5,29.6-15.4c-12.9,27.5-29.8,71.1-24,101.6
	c2.9,18.2,26.2,38,44.6,38c0,0,0,0,0,0c3.8,0,7.2-0.8,10.2-2.4l0.6-0.3l0.6-0.4c13.3-9.8,39.1-41.4,60-73.6
	c17.1-26.4,36.7-61.9,39.3-89c3.5,10.1,9.5,19.6,19,21.3c3.3,0.6,7.3,1,12.1,1c12.5,0,29-2.2,43-4.5c-17.4,18.6-48.1,48.7-102.3,96
	c-0.1,0.1-0.3,0.2-0.4,0.3c-0.7,0.1-1.3,0.1-1.9,0.2c-1.2,0.1-2.7,0.3-3.3,0.3h-10v3.2c-8.3,4.3-10.9,12-10.3,18.7
	c0.9,10.1,9.9,21.7,19.9,21.7c1.7,0,3.3-0.3,4.9-1l0.2-0.1l0.2-0.1c4.6-2.2,9.8-4.9,15.8-8.3c30.5,0.1,68.9,2.6,79.2,6.3l0.1,0
	c5.7,1.9,7.9,3.6,8.6,4.3c-0.1,1.6,0,5.2,2.9,8.3c1.6,1.6,3.6,2.7,5.8,3.1c0.8,0.2,1.5,0.2,2.3,0.2c0,0,0,0,0,0
	c2.4,0,8.5-0.8,12.2-8.7c4.6-9.6,4-26.8-8.3-41.9l-0.3-0.4l-0.4-0.4c-4.5-4.5-14.1-10.5-45.1-10.8C542.2,308.2,580,267.9,585,253.3z
	 M380.7,295.1c-10,18.3-19.9,33.3-27.8,43.7c4.8-33.8,20.6-72.6,35.5-100.2c5.5-2.7,13.5-8,16.1-16.5c0.6-2,0.9-4.1,0.7-6.2
	c1,1.1,2.4,2.2,4.4,2.9C408.3,235.7,397.7,264,380.7,295.1z"/>
<path id="XMLID_8_" d="M595.1,272l0.7-2.1l-0.2-2.2c-0.7-7.5-3.8-16.3-8-23.9c0-0.1-0.1-0.1-0.1-0.2c0-0.1-0.1-0.1-0.1-0.2
	c0-0.1-0.1-0.1-0.1-0.2c0-0.1-0.1-0.1-0.1-0.2c0-0.1-0.1-0.1-0.1-0.2c0-0.1-0.1-0.1-0.1-0.2c0-0.1-0.1-0.1-0.1-0.2
	c0-0.1-0.1-0.1-0.1-0.2c0-0.1-0.1-0.1-0.1-0.2c0-0.1-0.1-0.1-0.1-0.2c0-0.1-0.1-0.1-0.1-0.2c0-0.1-0.1-0.1-0.1-0.2
	c0-0.1-0.1-0.1-0.1-0.2c0-0.1-0.1-0.1-0.1-0.2c0-0.1-0.1-0.1-0.1-0.2c0-0.1-0.1-0.1-0.1-0.2c0-0.1-0.1-0.1-0.1-0.2
	c0-0.1-0.1-0.1-0.1-0.2c0-0.1-0.1-0.1-0.1-0.2c0-0.1-0.1-0.1-0.1-0.2c0-0.1-0.1-0.1-0.1-0.2c0-0.1-0.1-0.1-0.1-0.2
	c0-0.1-0.1-0.1-0.1-0.2c0-0.1-0.1-0.1-0.1-0.2c0-0.1-0.1-0.1-0.1-0.2c0-0.1-0.1-0.1-0.1-0.2c0-0.1-0.1-0.1-0.1-0.2
	c0-0.1-0.1-0.1-0.1-0.2c0-0.1-0.1-0.1-0.1-0.2c0-0.1-0.1-0.1-0.1-0.2c0-0.1-0.1-0.1-0.1-0.2c0-0.1-0.1-0.1-0.1-0.2
	c0-0.1-0.1-0.1-0.1-0.2c0-0.1-0.1-0.1-0.1-0.2c0-0.1-0.1-0.1-0.1-0.2c0-0.1-0.1-0.1-0.1-0.2c0-0.1-0.1-0.1-0.1-0.2
	c0-0.1-0.1-0.1-0.1-0.2c0-0.1-0.1-0.1-0.1-0.2c0-0.1-0.1-0.1-0.1-0.2c0-0.1-0.1-0.1-0.1-0.2c0-0.1-0.1-0.1-0.1-0.2
	c0-0.1-0.1-0.1-0.1-0.2c0-0.1-0.1-0.1-0.1-0.2c0-0.1-0.1-0.1-0.1-0.2c0-0.1-0.1-0.1-0.1-0.2c0-0.1-0.1-0.1-0.1-0.2
	c0-0.1-0.1-0.1-0.1-0.2c0-0.1-0.1-0.1-0.1-0.2c0-0.1-0.1-0.1-0.1-0.2c0-0.1-0.1-0.1-0.1-0.2c0-0.1-0.1-0.1-0.1-0.2
	c0-0.1-0.1-0.1-0.1-0.2c0-0.1-0.1-0.1-0.1-0.2c0-0.1-0.1-0.1-0.1-0.2c0-0.1-0.1-0.1-0.1-0.2c0-0.1-0.1-0.1-0.1-0.2
	c0-0.1-0.1-0.1-0.1-0.2c0-0.1-0.1-0.1-0.1-0.2c0-0.1-0.1-0.1-0.1-0.2c0-0.1-0.1-0.1-0.1-0.2c0-0.1-0.1-0.1-0.1-0.2
	c0-0.1-0.1-0.1-0.1-0.2c0-0.1-0.1-0.1-0.1-0.2c0-0.1-0.1-0.1-0.1-0.2c0-0.1-0.1-0.1-0.1-0.2c0-0.1-0.1-0.1-0.1-0.2
	c0-0.1-0.1-0.1-0.1-0.2c0-0.1-0.1-0.1-0.1-0.2c0-0.1-0.1-0.1-0.1-0.2c0-0.1-0.1-0.1-0.1-0.2c0-0.1-0.1-0.1-0.1-0.2
	c0-0.1-0.1-0.1-0.1-0.2c0-0.1-0.1-0.1-0.1-0.2c0-0.1-0.1-0.1-0.1-0.2c0-0.1-0.1-0.1-0.1-0.2c0-0.1-0.1-0.1-0.1-0.2
	c0-0.1-0.1-0.1-0.1-0.2c0-0.1-0.1-0.1-0.1-0.2c0-0.1-0.1-0.1-0.1-0.2c0-0.1-0.1-0.1-0.1-0.2c0-0.1-0.1-0.1-0.1-0.2
	c0-0.1-0.1-0.1-0.1-0.2c0-0.1-0.1-0.1-0.1-0.2c0-0.1-0.1-0.1-0.1-0.2c0-0.1-0.1-0.1-0.1-0.2c0-0.1-0.1-0.1-0.1-0.2
	c0-0.1-0.1-0.1-0.1-0.2c0,0,0-0.1-0.1-0.1c-5.4-10.5-13.2-19.4-20.7-20.6c-1-0.2-2.2-0.2-3.9-0.2c-3.7,0-9.9,0.4-17.7,0.8
	c-12.2,0.7-27.4,1.6-40.7,1.6c-13.8,0-19.7-1-22-1.7c0-0.1-0.1-0.1-0.1-0.2c0-0.1-0.1-0.1-0.1-0.2c0-0.1-0.1-0.1-0.1-0.2
	c0-0.1-0.1-0.1-0.1-0.2c0-0.1-0.1-0.1-0.1-0.2c0-0.1-0.1-0.1-0.1-0.2c0-0.1-0.1-0.1-0.1-0.2c-1.9-3.5-5.1-7.4-10.7-7.4
	c-3.7,0-10.3,2.5-11,11.7c-0.1,0.9-0.1,2.1-0.1,3.3c-6.2-10.4-18.5-21-30.3-21c-5.6,0-10.7,2.3-14.3,6.6l-0.1,0.2l-0.1,0.2
	c-1.1,1.4-3.3,4.2-3.8,7.8c-0.3-0.5-0.6-0.9-0.9-1.3l-0.5-0.7l-0.6-0.6c-4.7-4.7-11.9-7.6-19.1-7.6c-6.7,0-16.7,2.4-27.4,13.3
	c-41.3,5.5-108.5,27.2-122.3,48.1c-6.6,10.1-4.4,23.3-1.3,32.5c1,3.2,2.9,7.7,5.2,12c0,0.1,0.1,0.1,0.1,0.2c0,0.1,0.1,0.1,0.1,0.2
	c0,0.1,0.1,0.1,0.1,0.2c0,0.1,0.1,0.1,0.1,0.2c0,0.1,0.1,0.1,0.1,0.2c0,0.1,0.1,0.1,0.1,0.2c0,0.1,0.1,0.1,0.1,0.2
	c0,0.1,0.1,0.1,0.1,0.2c0,0.1,0.1,0.1,0.1,0.2c0,0.1,0.1,0.1,0.1,0.2c0,0.1,0.1,0.1,0.1,0.2c0,0.1,0.1,0.1,0.1,0.2
	c0,0.1,0.1,0.1,0.1,0.2c0,0.1,0.1,0.1,0.1,0.2c0,0.1,0.1,0.1,0.1,0.2c0,0.1,0.1,0.1,0.1,0.2c0,0.1,0.1,0.1,0.1,0.2
	c0,0.1,0.1,0.1,0.1,0.2c0,0.1,0.1,0.1,0.1,0.2c0,0.1,0.1,0.1,0.1,0.2c0,0.1,0.1,0.1,0.1,0.2c0,0.1,0.1,0.1,0.1,0.2
	c0,0.1,0.1,0.1,0.1,0.2c0,0.1,0.1,0.1,0.1,0.2c0,0.1,0.1,0.1,0.1,0.2c0,0.1,0.1,0.1,0.1,0.2c0,0.1,0.1,0.1,0.1,0.2
	c0,0.1,0.1,0.1,0.1,0.2c0,0.1,0.1,0.1,0.1,0.2c0,0.1,0.1,0.1,0.1,0.2c0,0.1,0.1,0.1,0.1,0.2c0,0.1,0.1,0.1,0.1,0.2
	c0,0.1,0.1,0.1,0.1,0.2c0,0.1,0.1,0.1,0.1,0.2c0,0.1,0.1,0.1,0.1,0.2c0,0.1,0.1,0.1,0.1,0.2c0,0.1,0.1,0.1,0.1,0.2
	c0,0.1,0.1,0.1,0.1,0.2c0,0.1,0.1,0.1,0.1,0.2c0,0.1,0.1,0.1,0.1,0.2c0,0.1,0.1,0.1,0.1,0.2c0,0.1,0.1,0.1,0.1,0.2
	c0,0.1,0.1,0.1,0.1,0.2c0,0.1,0.1,0.1,0.1,0.2c0,0.1,0.1,0.1,0.1,0.2c0,0.1,0.1,0.1,0.1,0.2c0,0.1,0.1,0.1,0.1,0.2
	c0,0.1,0.1,0.1,0.1,0.2c0,0.1,0.1,0.1,0.1,0.2c0,0.1,0.1,0.1,0.1,0.2c0,0.1,0.1,0.1,0.1,0.2c0,0.1,0.1,0.1,0.1,0.2
	c0,0.1,0.1,0.1,0.1,0.2c0,0.1,0.1,0.1,0.1,0.2c0,0.1,0.1,0.1,0.1,0.2c0,0.1,0.1,0.1,0.1,0.2c0,0.1,0.1,0.1,0.1,0.2
	c0,0.1,0.1,0.1,0.1,0.2c0,0.1,0.1,0.1,0.1,0.2c0,0.1,0.1,0.1,0.1,0.2c0,0.1,0.1,0.1,0.1,0.2c0,0.1,0.1,0.1,0.1,0.2
	c0,0.1,0.1,0.1,0.1,0.2c0,0.1,0.1,0.1,0.1,0.2c0,0.1,0.1,0.1,0.1,0.2c0,0.1,0.1,0.1,0.1,0.2c0,0.1,0.1,0.1,0.1,0.2
	c0,0.1,0.1,0.1,0.1,0.2c0,0.1,0.1,0.1,0.1,0.2c0,0.1,0.1,0.1,0.1,0.2c0,0.1,0.1,0.1,0.1,0.2c0,0.1,0.1,0.1,0.1,0.2
	c0,0.1,0.1,0.1,0.1,0.2c0,0.1,0.1,0.1,0.1,0.2c0,0.1,0.1,0.1,0.1,0.2c0,0.1,0.1,0.1,0.1,0.2c0,0.1,0.1,0.1,0.1,0.2
	c0,0.1,0.1,0.1,0.1,0.2c0,0.1,0.1,0.1,0.1,0.2c0,0.1,0.1,0.1,0.1,0.2c0,0.1,0.1,0.1,0.1,0.2c0,0.1,0.1,0.1,0.1,0.2
	c0,0.1,0.1,0.1,0.1,0.2c0,0.1,0.1,0.1,0.1,0.2c0,0.1,0.1,0.1,0.1,0.2c0,0.1,0.1,0.1,0.1,0.2c0,0.1,0.1,0.1,0.1,0.2
	c0,0.1,0.1,0.1,0.1,0.2c0,0.1,0.1,0.1,0.1,0.2c0,0.1,0.1,0.1,0.1,0.2c0,0.1,0.1,0.1,0.1,0.2c0,0.1,0.1,0.1,0.1,0.2
	c0,0.1,0.1,0.1,0.1,0.2c0,0.1,0.1,0.1,0.1,0.2c0,0.1,0.1,0.1,0.1,0.2c0,0.1,0.1,0.1,0.1,0.2c0,0.1,0.1,0.1,0.1,0.2
	c0,0.1,0.1,0.1,0.1,0.2c0,0.1,0.1,0.1,0.1,0.2c0,0.1,0.1,0.1,0.1,0.2c2.3,4.3,5.2,8.4,8.2,10.5l0.3,0.2l0.3,0.2
	c3.6,2.2,7.2,3.3,10.8,3.3c9.1,0,15-6.9,16.6-13.3l0.1-0.4l0.1-0.4c0.6-3.6-0.3-6.3-1.3-8.2c0-0.1-0.1-0.1-0.1-0.2
	c0-0.1-0.1-0.1-0.1-0.2c0-0.1-0.1-0.1-0.1-0.2c0-0.1-0.1-0.1-0.1-0.2c0-0.1-0.1-0.1-0.1-0.2c0-0.1-0.1-0.1-0.1-0.2
	c0-0.1-0.1-0.1-0.1-0.2c0-0.1-0.1-0.1-0.1-0.2c0,0,0-0.1-0.1-0.1c4-3.7,11.3-9.3,24.5-16.9c2.2-1.3,4.6-2.6,6.9-3.9
	c-8.7,23.7-15.3,50.6-11.3,71.4c0.7,4.2,2.4,8.5,5,12.6c0,0,0,0.1,0.1,0.1c0,0.1,0.1,0.1,0.1,0.2c0,0.1,0.1,0.1,0.1,0.2
	c0,0.1,0.1,0.1,0.1,0.2c0,0.1,0.1,0.1,0.1,0.2c0,0.1,0.1,0.1,0.1,0.2c0,0.1,0.1,0.1,0.1,0.2c0,0.1,0.1,0.1,0.1,0.2
	c0,0.1,0.1,0.1,0.1,0.2c0,0.1,0.1,0.1,0.1,0.2c0,0.1,0.1,0.1,0.1,0.2c0,0.1,0.1,0.1,0.1,0.2c0,0.1,0.1,0.1,0.1,0.2
	c0,0.1,0.1,0.1,0.1,0.2c0,0.1,0.1,0.1,0.1,0.2c0,0.1,0.1,0.1,0.1,0.2c0,0.1,0.1,0.1,0.1,0.2c0,0.1,0.1,0.1,0.1,0.2
	c0,0.1,0.1,0.1,0.1,0.2c0,0.1,0.1,0.1,0.1,0.2c0,0.1,0.1,0.1,0.1,0.2c0,0.1,0.1,0.1,0.1,0.2c0,0.1,0.1,0.1,0.1,0.2
	c0,0.1,0.1,0.1,0.1,0.2c0,0.1,0.1,0.1,0.1,0.2c0,0.1,0.1,0.1,0.1,0.2c0,0.1,0.1,0.1,0.1,0.2c0,0.1,0.1,0.1,0.1,0.2
	c0,0.1,0.1,0.1,0.1,0.2c0,0.1,0.1,0.1,0.1,0.2c0,0.1,0.1,0.1,0.1,0.2c0,0.1,0.1,0.1,0.1,0.2c0,0.1,0.1,0.1,0.1,0.2
	c0,0.1,0.1,0.1,0.1,0.2c0,0.1,0.1,0.1,0.1,0.2c0,0.1,0.1,0.1,0.1,0.2c0,0.1,0.1,0.1,0.1,0.2c0,0.1,0.1,0.1,0.1,0.2
	c0,0.1,0.1,0.1,0.1,0.2c0,0.1,0.1,0.1,0.1,0.2c0,0.1,0.1,0.1,0.1,0.2c0,0.1,0.1,0.1,0.1,0.2c0,0.1,0.1,0.1,0.1,0.2
	c0,0.1,0.1,0.1,0.1,0.2c0,0.1,0.1,0.1,0.1,0.2c0,0.1,0.1,0.1,0.1,0.2c0,0.1,0.1,0.1,0.1,0.2c0,0.1,0.1,0.1,0.1,0.2
	c0,0.1,0.1,0.1,0.1,0.2c0,0.1,0.1,0.1,0.1,0.2c0,0.1,0.1,0.1,0.1,0.2c0,0.1,0.1,0.1,0.1,0.2c0,0.1,0.1,0.1,0.1,0.2
	c0,0.1,0.1,0.1,0.1,0.2c0,0.1,0.1,0.1,0.1,0.2c0,0.1,0.1,0.1,0.1,0.2c0,0.1,0.1,0.1,0.1,0.2c0,0.1,0.1,0.1,0.1,0.2
	c0,0.1,0.1,0.1,0.1,0.2c0,0.1,0.1,0.1,0.1,0.2c0,0.1,0.1,0.1,0.1,0.2c0,0.1,0.1,0.1,0.1,0.2c0,0.1,0.1,0.1,0.1,0.2
	c0,0.1,0.1,0.1,0.1,0.2c0,0.1,0.1,0.1,0.1,0.2c0,0.1,0.1,0.1,0.1,0.2c0,0.1,0.1,0.1,0.1,0.2c0,0.1,0.1,0.1,0.1,0.2
	c0,0.1,0.1,0.1,0.1,0.2c0,0.1,0.1,0.1,0.1,0.2c0,0.1,0.1,0.1,0.1,0.2c0,0.1,0.1,0.1,0.1,0.2c0,0.1,0.1,0.1,0.1,0.2
	c0,0.1,0.1,0.1,0.1,0.2c0,0.1,0.1,0.1,0.1,0.2c0,0.1,0.1,0.1,0.1,0.2c0,0,0,0,0,0c7.1,15.6,26.4,30.1,42.1,30.1c0,0,0,0,0,0
	c3.8,0,7.2-0.8,10.2-2.4l0.6-0.3l0.6-0.4c8.5-6.2,22.1-21.4,36.2-39.9c0.5,1.6,1.2,3.1,2,4.6c0,0.1,0.1,0.1,0.1,0.2
	c0,0.1,0.1,0.1,0.1,0.2c0,0.1,0.1,0.1,0.1,0.2c0,0.1,0.1,0.1,0.1,0.2c0,0.1,0.1,0.1,0.1,0.2c0,0.1,0.1,0.1,0.1,0.2
	c0,0.1,0.1,0.1,0.1,0.2c0,0.1,0.1,0.1,0.1,0.2c0,0.1,0.1,0.1,0.1,0.2c0,0.1,0.1,0.1,0.1,0.2c0,0.1,0.1,0.1,0.1,0.2
	c0,0.1,0.1,0.1,0.1,0.2c0,0.1,0.1,0.1,0.1,0.2c0,0.1,0.1,0.1,0.1,0.2c0,0.1,0.1,0.1,0.1,0.2c0,0.1,0.1,0.1,0.1,0.2
	c0,0.1,0.1,0.1,0.1,0.2c0,0.1,0.1,0.1,0.1,0.2c0,0.1,0.1,0.1,0.1,0.2c0,0.1,0.1,0.1,0.1,0.2c0,0.1,0.1,0.1,0.1,0.2
	c0,0.1,0.1,0.1,0.1,0.2c0,0.1,0.1,0.1,0.1,0.2c0,0.1,0.1,0.1,0.1,0.2c0,0.1,0.1,0.1,0.1,0.2c0,0.1,0.1,0.1,0.1,0.2
	c0,0.1,0.1,0.1,0.1,0.2c0,0.1,0.1,0.1,0.1,0.2c0,0.1,0.1,0.1,0.1,0.2c0,0.1,0.1,0.1,0.1,0.2c0,0.1,0.1,0.1,0.1,0.2
	c0,0.1,0.1,0.1,0.1,0.2c0,0.1,0.1,0.1,0.1,0.2c0,0.1,0.1,0.1,0.1,0.2c0,0.1,0.1,0.1,0.1,0.2c0,0.1,0.1,0.1,0.1,0.2
	c0,0.1,0.1,0.1,0.1,0.2c0,0.1,0.1,0.1,0.1,0.2c0,0.1,0.1,0.1,0.1,0.2c0,0.1,0.1,0.1,0.1,0.2c0,0.1,0.1,0.1,0.1,0.2
	c0,0.1,0.1,0.1,0.1,0.2c0,0.1,0.1,0.1,0.1,0.2c0,0.1,0.1,0.1,0.1,0.2c0,0.1,0.1,0.1,0.1,0.2c0,0.1,0.1,0.1,0.1,0.2
	c0,0.1,0.1,0.1,0.1,0.2c0,0.1,0.1,0.1,0.1,0.2c0,0.1,0.1,0.1,0.1,0.2c0,0.1,0.1,0.1,0.1,0.2c0,0.1,0.1,0.1,0.1,0.2
	c0,0.1,0.1,0.1,0.1,0.2c0,0.1,0.1,0.1,0.1,0.2c0,0.1,0.1,0.1,0.1,0.2c0,0.1,0.1,0.1,0.1,0.2c0,0.1,0.1,0.1,0.1,0.2
	c0,0.1,0.1,0.1,0.1,0.2c0,0.1,0.1,0.1,0.1,0.2c0,0.1,0.1,0.1,0.1,0.2c0,0.1,0.1,0.1,0.1,0.2c0,0.1,0.1,0.1,0.1,0.2
	c0,0.1,0.1,0.1,0.1,0.2c0,0.1,0.1,0.1,0.1,0.2c0,0.1,0.1,0.1,0.1,0.2c0,0.1,0.1,0.1,0.1,0.2c0,0.1,0.1,0.1,0.1,0.2
	c0,0.1,0.1,0.1,0.1,0.2c0,0.1,0.1,0.1,0.1,0.2c0,0.1,0.1,0.1,0.1,0.2c0,0.1,0.1,0.1,0.1,0.2c0,0.1,0.1,0.1,0.1,0.2
	c0,0.1,0.1,0.1,0.1,0.2c0,0.1,0.1,0.1,0.1,0.2c0,0.1,0.1,0.1,0.1,0.2c0,0.1,0.1,0.1,0.1,0.2c0,0.1,0.1,0.1,0.1,0.2
	c0,0.1,0.1,0.1,0.1,0.2c0,0.1,0.1,0.1,0.1,0.2c0,0.1,0.1,0.1,0.1,0.2c0,0.1,0.1,0.1,0.1,0.2c0,0.1,0.1,0.1,0.1,0.2
	c0,0.1,0.1,0.1,0.1,0.2c0,0.1,0.1,0.1,0.1,0.2c0,0.1,0.1,0.1,0.1,0.2c0,0.1,0.1,0.1,0.1,0.2c0,0.1,0.1,0.1,0.1,0.2
	c0,0.1,0.1,0.1,0.1,0.2c0,0.1,0.1,0.1,0.1,0.2c0,0.1,0.1,0.1,0.1,0.2c0,0.1,0.1,0.1,0.1,0.2c0,0.1,0.1,0.1,0.1,0.2
	c0,0.1,0.1,0.1,0.1,0.2c0,0.1,0.1,0.1,0.1,0.2c0,0.1,0.1,0.1,0.1,0.2c0,0.1,0.1,0.1,0.1,0.2c0,0.1,0.1,0.1,0.1,0.2
	c0,0.1,0.1,0.1,0.1,0.2c0,0.1,0.1,0.1,0.1,0.2c0,0.1,0.1,0.1,0.1,0.2c0,0.1,0.1,0.1,0.1,0.2c3.6,6.8,10,12.3,17,12.3
	c1.7,0,3.3-0.3,4.9-1l0.2-0.1l0.2-0.1c4.6-2.2,9.8-4.9,15.8-8.3c30.5,0.1,68.9,2.6,79.2,6.3l0.1,0c2.4,0.8,4.2,1.6,5.6,2.3
	c0,0,0,0.1,0.1,0.1c0,0.1,0.1,0.1,0.1,0.2c0,0.1,0.1,0.1,0.1,0.2c0,0.1,0.1,0.1,0.1,0.2c0,0.1,0.1,0.1,0.1,0.2
	c0,0.1,0.1,0.1,0.1,0.2c0,0.1,0.1,0.1,0.1,0.2c0,0.1,0.1,0.1,0.1,0.2c0,0.1,0.1,0.1,0.1,0.2c0,0.1,0.1,0.1,0.1,0.2
	c0,0.1,0.1,0.1,0.1,0.2c0,0.1,0.1,0.1,0.1,0.2c0,0.1,0.1,0.1,0.1,0.2c0,0.1,0.1,0.1,0.1,0.2c0,0.1,0.1,0.1,0.1,0.2
	c0,0.1,0.1,0.1,0.1,0.2c0,0.1,0.1,0.1,0.1,0.2c0,0.1,0.1,0.1,0.1,0.2c0,0.1,0.1,0.1,0.1,0.2c0,0.1,0.1,0.1,0.1,0.2
	c0,0.1,0.1,0.1,0.1,0.2c0,0.1,0.1,0.1,0.1,0.2c0,0.1,0.1,0.1,0.1,0.2c0,0.1,0.1,0.1,0.1,0.2c0,0.1,0.1,0.1,0.1,0.2
	c0,0.1,0.1,0.1,0.1,0.2c0,0.1,0.1,0.1,0.1,0.2c0,0.1,0.1,0.1,0.1,0.2c0,0.1,0.1,0.1,0.1,0.2c0,0.1,0.1,0.1,0.1,0.2
	c0,0.1,0.1,0.1,0.1,0.2c0,0.1,0.1,0.1,0.1,0.2c0,0.1,0.1,0.1,0.1,0.2c0,0.1,0.1,0.1,0.1,0.2c0,0.1,0.1,0.1,0.1,0.2
	c0,0.1,0.1,0.1,0.1,0.2c0,0.1,0.1,0.1,0.1,0.2c0,0.1,0.1,0.1,0.1,0.2c0,0.1,0.1,0.1,0.1,0.2c0,0.1,0.1,0.1,0.1,0.2
	c0,0.1,0.1,0.1,0.1,0.2c0,0.1,0.1,0.1,0.1,0.2c0,0.1,0.1,0.1,0.1,0.2c0.4,0.8,1,1.7,1.8,2.5c1.6,1.6,3.6,2.7,5.8,3.1
	c0.8,0.2,1.5,0.2,2.3,0.2c0,0,0,0,0,0c2.4,0,8.5-0.8,12.2-8.7c3.7-7.8,4-20.7-2.7-33.4c0-0.1-0.1-0.1-0.1-0.2c0-0.1-0.1-0.1-0.1-0.2
	c0-0.1-0.1-0.1-0.1-0.2c0-0.1-0.1-0.1-0.1-0.2c0-0.1-0.1-0.1-0.1-0.2c0-0.1-0.1-0.1-0.1-0.2c0-0.1-0.1-0.1-0.1-0.2
	c0-0.1-0.1-0.1-0.1-0.2c0-0.1-0.1-0.1-0.1-0.2c0-0.1-0.1-0.1-0.1-0.2c0-0.1-0.1-0.1-0.1-0.2c0-0.1-0.1-0.1-0.1-0.2
	c0-0.1-0.1-0.1-0.1-0.2c0-0.1-0.1-0.1-0.1-0.2c0-0.1-0.1-0.1-0.1-0.2c0-0.1-0.1-0.1-0.1-0.2c0-0.1-0.1-0.1-0.1-0.2
	c0-0.1-0.1-0.1-0.1-0.2c0-0.1-0.1-0.1-0.1-0.2c0-0.1-0.1-0.1-0.1-0.2c0-0.1-0.1-0.1-0.1-0.2c0-0.1-0.1-0.1-0.1-0.2
	c0-0.1-0.1-0.1-0.1-0.2c0-0.1-0.1-0.1-0.1-0.2c0-0.1-0.1-0.1-0.1-0.2c0-0.1-0.1-0.1-0.1-0.2c0-0.1-0.1-0.1-0.1-0.2
	c0-0.1-0.1-0.1-0.1-0.2c0-0.1-0.1-0.1-0.1-0.2c0-0.1-0.1-0.1-0.1-0.2c0-0.1-0.1-0.1-0.1-0.2c0-0.1-0.1-0.1-0.1-0.2
	c0-0.1-0.1-0.1-0.1-0.2c0-0.1-0.1-0.1-0.1-0.2c0-0.1-0.1-0.1-0.1-0.2c0-0.1-0.1-0.1-0.1-0.2c0-0.1-0.1-0.1-0.1-0.2
	c0-0.1-0.1-0.1-0.1-0.2c0-0.1-0.1-0.1-0.1-0.2c0-0.1-0.1-0.1-0.1-0.2c0-0.1-0.1-0.1-0.1-0.2c0-0.1-0.1-0.1-0.1-0.2
	c0-0.1-0.1-0.1-0.1-0.2c0-0.1-0.1-0.1-0.1-0.2c0-0.1-0.1-0.1-0.1-0.2c0-0.1-0.1-0.1-0.1-0.2c0-0.1-0.1-0.1-0.1-0.2
	c0-0.1-0.1-0.1-0.1-0.2c0-0.1-0.1-0.1-0.1-0.2c0-0.1-0.1-0.1-0.1-0.2c0-0.1-0.1-0.1-0.1-0.2c0-0.1-0.1-0.1-0.1-0.2
	c0-0.1-0.1-0.1-0.1-0.2c0-0.1-0.1-0.1-0.1-0.2c0-0.1-0.1-0.1-0.1-0.2c0-0.1-0.1-0.1-0.1-0.2c0-0.1-0.1-0.1-0.1-0.2
	c0-0.1-0.1-0.1-0.1-0.2c0-0.1-0.1-0.1-0.1-0.2c0-0.1-0.1-0.1-0.1-0.2c0-0.1-0.1-0.1-0.1-0.2c0-0.1-0.1-0.1-0.1-0.2
	c0-0.1-0.1-0.1-0.1-0.2c0-0.1-0.1-0.1-0.1-0.2c0-0.1-0.1-0.1-0.1-0.2c0-0.1-0.1-0.1-0.1-0.2c0-0.1-0.1-0.1-0.1-0.2
	c0-0.1-0.1-0.1-0.1-0.2c0-0.1-0.1-0.1-0.1-0.2c0-0.1-0.1-0.1-0.1-0.2c0-0.1-0.1-0.1-0.1-0.2c0-0.1-0.1-0.1-0.1-0.2
	c0-0.1-0.1-0.1-0.1-0.2c0-0.1-0.1-0.1-0.1-0.2c0-0.1-0.1-0.1-0.1-0.2c0-0.1-0.1-0.1-0.1-0.2c0-0.1-0.1-0.1-0.1-0.2
	c0-0.1-0.1-0.1-0.1-0.2c0-0.1-0.1-0.1-0.1-0.2c0-0.1-0.1-0.1-0.1-0.2c0-0.1-0.1-0.1-0.1-0.2c0-0.1-0.1-0.1-0.1-0.2
	c0-0.1-0.1-0.1-0.1-0.2c0-0.1-0.1-0.1-0.1-0.2c0-0.1-0.1-0.1-0.1-0.2c0-0.1-0.1-0.1-0.1-0.2c0-0.1-0.1-0.1-0.1-0.2
	c0-0.1-0.1-0.1-0.1-0.2c0-0.1-0.1-0.1-0.1-0.2c0-0.1-0.1-0.1-0.1-0.2c0-0.1-0.1-0.1-0.1-0.2c0-0.1-0.1-0.1-0.1-0.2
	c0-0.1-0.1-0.1-0.1-0.2c0-0.1-0.1-0.1-0.1-0.2c0-0.1-0.1-0.1-0.1-0.2c0-0.1-0.1-0.1-0.1-0.2c0-0.1-0.1-0.1-0.1-0.2
	c0-0.1-0.1-0.1-0.1-0.2c0-0.1-0.1-0.1-0.1-0.2c0-0.1-0.1-0.1-0.1-0.2c-1.5-2.9-3.4-5.8-5.7-8.7l-0.3-0.4l-0.4-0.4
	c-2.6-2.6-7-5.8-16.4-8C562.7,315.5,590.7,284.4,595.1,272z M425.9,342.4c16.8-26,36.1-60.8,39.2-87.8c0,0,0,0.1,0.1,0.1
	c0,0.1,0.1,0.1,0.1,0.2c0,0.1,0.1,0.1,0.1,0.2c0,0.1,0.1,0.1,0.1,0.2c0,0.1,0.1,0.1,0.1,0.2c0,0.1,0.1,0.1,0.1,0.2
	c0,0.1,0.1,0.1,0.1,0.2c0,0.1,0.1,0.1,0.1,0.2c0,0.1,0.1,0.1,0.1,0.2c0,0.1,0.1,0.1,0.1,0.2c0,0.1,0.1,0.1,0.1,0.2
	c0,0.1,0.1,0.1,0.1,0.2c0,0.1,0.1,0.1,0.1,0.2c0,0.1,0.1,0.1,0.1,0.2c0,0.1,0.1,0.1,0.1,0.2c0,0.1,0.1,0.1,0.1,0.2
	c0,0.1,0.1,0.1,0.1,0.2c0,0.1,0.1,0.1,0.1,0.2c0,0.1,0.1,0.1,0.1,0.2c0,0.1,0.1,0.1,0.1,0.2c0,0.1,0.1,0.1,0.1,0.2
	c0,0.1,0.1,0.1,0.1,0.2c0,0.1,0.1,0.1,0.1,0.2c0,0.1,0.1,0.1,0.1,0.2c0,0.1,0.1,0.1,0.1,0.2c0,0.1,0.1,0.1,0.1,0.2
	c0,0.1,0.1,0.1,0.1,0.2c0,0.1,0.1,0.1,0.1,0.2c0,0.1,0.1,0.1,0.1,0.2c0,0.1,0.1,0.1,0.1,0.2c0,0.1,0.1,0.1,0.1,0.2
	c0,0.1,0.1,0.1,0.1,0.2c0,0,0,0,0,0c3.6,7.1,8.8,12.8,16,14.1c3.3,0.6,7.3,1,12.1,1c3.3,0,6.9-0.2,10.6-0.4
	c-18.3,17.9-43.9,41.7-80,73.2c-0.1,0.1-0.3,0.2-0.4,0.3c-0.7,0.1-1.3,0.1-1.9,0.2c-1.2,0.1-2.7,0.3-3.3,0.3h0
	C422.9,346.9,424.4,344.7,425.9,342.4z M398.4,257.2c0.2-0.1,0.4-0.2,0.6-0.3c-4.7,11.7-10.8,24.5-18.2,37.9
	C386.3,281.2,392.4,268.3,398.4,257.2z"/>
<g id="XMLID_9_">
	<path id="XMLID_10_" class="st0" d="M449.8,231.7c-0.9-9.6-21.6-30.9-31.2-19.8c-5.7,7.2,4.5,0,5.4,6c3.6,41.1-59.1,144.9-78,152.1
		c-2.4-44.4,23.1-103.2,39.6-133.2c8.4-3.3,18-10.8,12.3-18.9c-4.8-4.8-18.6-10.2-34.5,8.1c-42.3,4.8-107.7,27.3-118.8,44.1
		c-8.1,12.3,4.5,37.8,9.3,41.1c7.5,4.5,11.7-0.3,12.6-3.9c0.9-5.4-7.8,0.6-6.9-4.2c1.5-14.1,53.1-42,90.3-56.4
		c-17.7,31.2-42,87.3-35.7,120c2.4,15.9,28.5,34.8,40.2,28.5C376.9,378.7,453.4,277,449.8,231.7z"/>
	<path id="XMLID_11_" class="st0" d="M472.6,360.7C525.4,322.3,575.2,269.8,580,256c-1.5-15.6-13.5-32.4-19.2-33.3
		c-7.2-1.2-86.1,7.8-90.9-3c-8.4-20.7-4.2,30,10.5,32.4c19.8,3.9,73.8-7.8,79.2-8.7C532.3,280.3,445,355.6,435.1,364.3
		c-3.9,0.3-7.2,0.9-9.3,0.9v0.3c-20.7,3.9-5.1,25.5,0.6,23.1c5.7-2.7,11.7-6,17.4-9.3c27.3,0,71.7,2.1,85.2,6.9
		c21,7.2,13.5,15.3,15.9,15.3c4.5,1.5,10.8-16.8-3.3-34.2C532.9,358.6,500.8,358.3,472.6,360.7z"/>
</g>
<g id="XMLID_4_">
	<g id="XMLID_12_">
		<path id="XMLID_33_" class="st1" d="M344.6,392.4c-13.2,0-34.4-16.3-36.7-31.4c-6.2-32.3,16.8-86.1,33.2-116.4
			c-38.7,15.7-82.1,41-83.8,52.5c0.3,0,0.7-0.1,1-0.1c0.6-0.1,1.2-0.1,1.9-0.1c0.5,0,2.1,0,3.2,1.3c0.7,0.9,1,2,0.7,3.5l0,0.2
			c-0.9,3.5-4,7.2-8.9,7.2c-2.1,0-4.4-0.7-6.7-2.1l-0.1-0.1c-6-4.1-18.5-30.7-9.8-43.8c11.5-17.3,76.7-39.9,119.5-44.9
			c9.4-10.6,18-12.8,23.5-12.8c7.6,0,12.2,4,13.4,5.2l0.2,0.3c2,2.8,2.6,5.9,1.7,9c-1.7,5.7-8.3,10.2-14.2,12.6
			c-18.9,34.6-40.1,88.2-39.1,128.3c20.4-14.2,77.5-109.5,74.1-148.6c-0.1-0.5-0.2-0.9-1.6-0.9c-0.4,0-0.9,0-1.3,0.1
			c-0.4,0-0.9,0.1-1.2,0.1c-1.4,0-2.3-0.5-2.8-1.5c-0.8-1.6,0.4-3.4,1.9-5.3c2.2-2.6,5.1-3.9,8.3-3.9c11.3,0,25.6,16.1,26.4,24.7
			c3.7,46.2-73.1,148.3-96.2,165.3l-0.2,0.1C349.1,391.9,347,392.4,344.6,392.4C344.6,392.4,344.6,392.4,344.6,392.4z"/>
		<path id="XMLID_30_" d="M421,202.8c10.3,0,23.7,15.2,24.4,22.9c3.6,45.3-72.9,147-95.4,163.5c-1.6,0.9-3.4,1.2-5.4,1.2
			c-12.9,0-32.7-16-34.8-29.7c-6.3-32.7,18-88.8,35.7-120c-37.2,14.4-88.8,42.3-90.3,56.4c-0.3,1.6,0.5,2,1.7,2c1,0,2.2-0.3,3.2-0.3
			c1.3,0,2.3,0.4,2,2.4c-0.6,2.6-2.9,5.7-6.9,5.7c-1.6,0-3.5-0.5-5.7-1.8c-4.8-3.3-17.4-28.8-9.3-41.1
			c11.1-16.8,76.5-39.3,118.8-44.1c8.4-9.7,16.3-12.7,22.5-12.7c5.5,0,9.8,2.4,12,4.6c5.7,8.1-3.9,15.6-12.3,18.9
			c-16.5,30-42,88.8-39.6,133.2c18.9-7.2,81.6-111,78-152.1c-0.3-2.2-2-2.6-3.6-2.6c-0.9,0-1.8,0.1-2.5,0.1c-1.3,0-1.7-0.5,0.7-3.5
			C416.1,203.7,418.4,202.8,421,202.8 M421,198.8c-3.9,0-7.2,1.6-9.8,4.5l-0.1,0.1c-1.4,1.8-3.5,4.5-2.1,7.4c0.5,1,1.7,2.6,4.6,2.6
			c0.5,0,0.9,0,1.4-0.1c0.3,0,0.5,0,0.8-0.1c1,17.4-10.2,49.2-30.2,85.5c-15.6,28.4-31,49.4-40.1,57.8c0.5-39,20.5-89.3,38.6-122.5
			c4.1-1.8,12.5-6.3,14.7-13.6c1.1-3.7,0.4-7.4-1.9-10.7l-0.4-0.5c-3.6-3.6-9.2-5.8-14.8-5.8c-5.8,0-14.7,2.3-24.5,12.9
			c-20.7,2.5-46.9,9-70.5,17.6c-15.3,5.5-42,16.5-49.7,28.1c-9.4,14.3,3.9,42.1,10.4,46.6l0.2,0.1c2.6,1.6,5.3,2.4,7.7,2.4
			c5.9,0,9.7-4.5,10.8-8.8l0.1-0.3c0.4-2.6-0.4-4.2-1.2-5.1c-1.1-1.3-2.6-1.9-4.6-2c2.3-3.6,8.9-10.7,28.7-22.4
			c14-8.3,31.2-16.9,47.6-23.8c-8.5,16.3-16.3,34.1-21.8,50.2c-8.9,26.1-11.9,47.2-9,62.5c2.4,15.2,23.3,33.1,38.7,33.1
			c2.7,0,5.2-0.6,7.3-1.7l0.5-0.3c12.6-9.3,38.3-40.9,58.5-72c15.3-23.7,40.7-67.5,38.5-95l0-0.1c-0.5-5.7-5.4-12.4-9.8-16.8
			C433.4,202.3,426.6,198.8,421,198.8L421,198.8z"/>
	</g>
	<g id="XMLID_5_">
		<path id="XMLID_28_" class="st1" d="M541,397.6c-0.3,0-0.6,0-0.9-0.1c-0.6-0.1-1.1-0.3-1.5-0.7c-0.8-0.8-0.7-1.8-0.7-2.7
			c0.1-2.1,0.3-7-14-11.9c-13.1-4.7-56.8-6.8-84-6.8c-6.6,3.8-12.2,6.8-17.1,9.1c-0.6,0.3-1.2,0.4-1.8,0.4c-5,0-11.4-7.7-12-14.5
			c-0.3-3.1,0.3-10.6,12-12.8l0,0l0.4-0.4c1,0,2.5-0.2,4.2-0.4c1.3-0.2,2.7-0.3,4.3-0.5c0.6-0.5,1.4-1.2,2.3-2
			c72.9-63.6,104.6-96.9,118.2-114c-12.9,2.5-44.1,8.5-64.1,8.5c-4.3,0-7.9-0.3-10.7-0.8c-12.1-2-17-28.8-16.3-37
			c0.2-2.9,1.3-4.3,3-4.3c1.8,0,3.2,1.7,5,6.2c0.4,0.9,3.7,4.1,28.3,4.1c13.5,0,28.9-0.9,41.2-1.7c7.7-0.5,13.8-0.8,17.3-0.8
			c1.2,0,2,0,2.6,0.1c7.3,1.2,19.4,19.5,20.9,35.1l-0.1,0.8c-4.8,13.8-51.9,63.6-102.5,101.5c7.5-0.5,14.7-0.8,21.4-0.8
			c22.4,0,36.6,2.9,42.2,8.5l0.1,0.2c10.7,13.2,10.2,27.2,7.3,33.4C544.7,396.1,543,397.6,541,397.6C541,397.6,541,397.6,541,397.6z
			"/>
		<path id="XMLID_25_" d="M462.3,208.7c0.7,0,1.8,1.5,3.2,5c1.8,4.2,14.7,5.4,30.2,5.4c22.1,0,49.7-2.5,58.4-2.5c1,0,1.8,0,2.3,0.1
			c5.7,0.9,17.7,17.7,19.2,33.3c-4.8,13.8-54.6,66.3-107.4,104.7c9.3-0.8,19-1.3,28.2-1.3c18.6,0,35,2.1,40.8,7.9
			c13.6,16.7,8.3,34.3,3.8,34.3c-0.2,0-0.4,0-0.5-0.1c-2.4,0,5.1-8.1-15.9-15.3c-13.5-4.8-57.9-6.9-85.2-6.9
			c-5.7,3.3-11.7,6.6-17.4,9.3c-0.3,0.1-0.6,0.2-1,0.2c-6.3,0-19.2-19.6,0.4-23.3v-0.3c2.1,0,5.4-0.6,9.3-0.9
			c9.9-8.7,97.2-84,124.5-120.9c-4.6,0.8-45,9.5-68.9,9.5c-4,0-7.5-0.2-10.3-0.8C463.8,244.1,458.8,208.7,462.3,208.7 M462.3,204.7
			c-1.4,0-4.6,0.6-5,6.2c-0.4,5.1,1,14.1,3.5,21.4c3.5,10.6,8.5,16.7,14.5,17.7c2.9,0.6,6.6,0.9,11,0.9c17.8,0,44.2-4.7,59.1-7.5
			c-15.2,18.1-47.3,50.8-114.5,109.5c-0.7,0.6-1.3,1.1-1.8,1.6c-1.3,0.1-2.5,0.3-3.7,0.4c-1.6,0.2-3.1,0.4-4,0.4l-0.7,0.7l-0.1-0.3
			c-13.7,2.6-13.9,12.1-13.6,14.9c0.7,7.9,7.9,16.3,14,16.3c0.9,0,1.7-0.2,2.5-0.5l0.2-0.1c4.8-2.3,10.3-5.2,16.8-8.9
			c27.1,0.1,70,2.1,82.8,6.7c7.5,2.6,10.5,5,11.8,6.6c1,1.3,1,2.2,0.9,3.3c0,1-0.1,2.8,1.3,4.2c0.7,0.7,1.6,1.2,2.6,1.3
			c0.4,0.1,0.8,0.1,1.3,0.1c1.6,0,4.6-0.7,6.8-5.3c3.8-8,3.1-22.5-7.5-35.5l-0.3-0.3c-6.1-6.1-20.4-9.1-43.6-9.1
			c-4.8,0-9.7,0.1-14.9,0.4c20.8-16,42.2-34.8,61.3-53.8c20.3-20.3,34-37,36.7-44.6l0.2-1.7c-0.7-7.6-3.9-16.3-8.6-23.9
			c-2.2-3.6-8.1-12-13.9-13c-0.7-0.1-1.6-0.2-2.9-0.2c-3.5,0-9.6,0.4-17.4,0.8c-12.3,0.7-27.6,1.7-41.1,1.7c-21.9,0-26-2.6-26.6-3.1
			C467.6,208.3,465.8,204.7,462.3,204.7L462.3,204.7C462.3,204.7,462.3,204.7,462.3,204.7L462.3,204.7z"/>
	</g>
</g>
<polyline id="XMLID_14_" points="342.5,246.1 358.5,236.6 345.5,240.7 "/>
<polyline id="XMLID_13_" points="555.2,237.4 562.8,235.4 551,242.8 "/>
<polyline id="XMLID_15_" points="468.2,354.7 460,360 476.1,354.1 "/>
<g id="XMLID_18_">
	<g id="XMLID_43_">
		<g id="XMLID_47_">
			<path id="XMLID_48_" class="st2" d="M334.8,366.8c0,0-0.2-0.2-0.4-0.7c-0.1-0.2-0.3-0.5-0.4-0.9c-0.1-0.4-0.3-0.8-0.5-1.2
				c-0.7-1.9-1.3-4.7-1.6-8.1c-0.3-3.4-0.3-7.5,0.1-11.8c0.4-4.3,1.1-8.9,2-13.4c1.8-9.1,4.4-18,6.5-24.8c2.2-6.8,3.9-11.5,4.1-12.1
				c0.2-0.6,1.8-4.9,4.3-11c2.5-6.1,5.9-14,9.4-21.6c3.5-7.7,7.3-15.2,10.2-20.8c1.4-2.8,2.7-5.1,3.6-6.7c0.9-1.6,1.5-2.5,1.6-2.4
				c0.1,0-0.3,1-1,2.7c-0.7,1.7-1.8,4-3.1,6.9c-2.6,5.7-6,13.3-9.3,21.1c-3.3,7.8-6.5,15.7-8.8,21.8c-2.3,6.1-3.9,10.5-4.1,11
				c-0.2,0.6-2,5.2-4.3,11.9c-2.3,6.7-5,15.5-7.1,24.4c-1,4.4-1.8,8.9-2.4,13.1c-0.5,4.2-0.7,8.1-0.6,11.5c0.1,3.4,0.6,6.1,1,8
				c0.1,0.5,0.2,0.9,0.3,1.3c0.1,0.4,0.2,0.7,0.3,0.9C334.8,366.4,334.8,366.7,334.8,366.8z"/>
		</g>
	</g>
</g>
<g id="XMLID_19_">
	<g id="XMLID_51_">
		<g id="XMLID_55_">
			<path id="XMLID_56_" class="st2" d="M451.9,360c0-0.1,1.1-0.7,3-1.8c1.9-1.1,4.5-2.8,7.5-5.1c6-4.5,13.7-11,21.2-17.8
				c15.1-13.6,29.7-28.2,30.7-29.1c1-1,14.8-14.1,28.1-27.3c6.7-6.6,13.2-13.1,18.2-18c2.5-2.4,4.5-4.5,6-5.9
				c1.5-1.4,2.3-2.2,2.4-2.1c0.1,0.1-0.6,1-2,2.5c-1.3,1.5-3.2,3.7-5.6,6.2c-4.7,5.1-11,11.9-17.5,18.7c-12.9,13.6-26.5,27-27.5,28
				c-1,0.9-15.9,15.3-31.4,28.6c-7.7,6.6-15.6,12.9-22,17.2c-3.1,2.1-5.9,3.7-7.9,4.7C453.1,359.7,451.9,360.1,451.9,360z"/>
		</g>
	</g>
</g>
</svg>
